<mxfile host="app.diagrams.net" modified="2023-09-28T14:58:52.406Z" agent="Mozilla/5.0 (Windows NT 10.0; Win64; x64) AppleWebKit/537.36 (KHTML, like Gecko) Chrome/117.0.0.0 Safari/537.36" version="21.8.2" etag="caP9NSTV19OEE5y_RDqF" type="device">
  <diagram name="Seite-1" id="1UqIFNeRel8w9c3Ury_5">
    <mxGraphModel dx="530" dy="77" grid="1" gridSize="10" guides="1" tooltips="1" connect="1" arrows="1" fold="1" page="0" pageScale="1" pageWidth="827" pageHeight="1169" math="0" shadow="0">
      <root>
        <mxCell id="0" />
        <mxCell id="1" parent="0" />
        <mxCell id="r40zEPP65t3HedOzYuGG-407" value="" style="rounded=0;whiteSpace=wrap;html=1;strokeColor=none;" vertex="1" parent="1">
          <mxGeometry x="430.94" y="730" width="570" height="180" as="geometry" />
        </mxCell>
        <mxCell id="r40zEPP65t3HedOzYuGG-401" style="edgeStyle=orthogonalEdgeStyle;rounded=0;orthogonalLoop=1;jettySize=auto;html=1;entryX=0;entryY=0.5;entryDx=0;entryDy=0;" edge="1" parent="1" source="r40zEPP65t3HedOzYuGG-360" target="r40zEPP65t3HedOzYuGG-387">
          <mxGeometry relative="1" as="geometry" />
        </mxCell>
        <mxCell id="r40zEPP65t3HedOzYuGG-360" value="" style="rounded=0;whiteSpace=wrap;html=1;fillColor=#FFFFFF;glass=0;strokeColor=default;" vertex="1" parent="1">
          <mxGeometry x="444" y="740" width="227" height="160" as="geometry" />
        </mxCell>
        <mxCell id="r40zEPP65t3HedOzYuGG-369" value="" style="group" vertex="1" connectable="0" parent="1">
          <mxGeometry x="447.0327152317881" y="830.6601475026587" width="79.86754966887418" height="58.58985249734124" as="geometry" />
        </mxCell>
        <mxCell id="r40zEPP65t3HedOzYuGG-370" value="" style="shape=image;verticalLabelPosition=bottom;labelBackgroundColor=default;verticalAlign=top;aspect=fixed;imageAspect=0;image=data:image/svg+xml,PHN2ZyB4bWxucz0iaHR0cDovL3d3dy53My5vcmcvMjAwMC9zdmciIHhtbDpzcGFjZT0icHJlc2VydmUiIHZpZXdCb3g9IjAgMCA0MzIuMDcxIDQ0NS4zODMiIGhlaWdodD0iNDQ1LjM4M3B0IiB3aWR0aD0iNDMyLjA3MXB0Ij4KPGcgc3R5bGU9ImZpbGwtcnVsZTpub256ZXJvO2NsaXAtcnVsZTpub256ZXJvO3N0cm9rZTojMDAwMDAwO3N0cm9rZS1taXRlcmxpbWl0OjQ7IiBpZD0ib3JnaW5hbCI+Cgk8L2c+CjxnIHN0eWxlPSJmaWxsLXJ1bGU6bm9uemVybztjbGlwLXJ1bGU6bm9uemVybztmaWxsOm5vbmU7c3Ryb2tlOiNGRkZGRkY7c3Ryb2tlLXdpZHRoOjEyLjQ2NTE7c3Ryb2tlLWxpbmVjYXA6cm91bmQ7c3Ryb2tlLWxpbmVqb2luOnJvdW5kO3N0cm9rZS1taXRlcmxpbWl0OjQ7IiBpZD0iTGF5ZXJfeDAwMjBfMyI+CjxwYXRoIGQ9Ik0zMjMuMjA1LDMyNC4yMjdjMi44MzMtMjMuNjAxLDEuOTg0LTI3LjA2MiwxOS41NjMtMjMuMjM5bDQuNDYzLDAuMzkyYzEzLjUxNywwLjYxNSwzMS4xOTktMi4xNzQsNDEuNTg3LTdjMjIuMzYyLTEwLjM3NiwzNS42MjItMjcuNywxMy41NzItMjMuMTQ4Yy01MC4yOTcsMTAuMzc2LTUzLjc1NS02LjY1NS01My43NTUtNi42NTVjNTMuMTExLTc4LjgwMyw3NS4zMTMtMTc4LjgzNiw1Ni4xNDktMjAzLjMyMiAgICBDMzUyLjUxNC01LjUzNCwyNjIuMDM2LDI2LjA0OSwyNjAuNTIyLDI2Ljg2OWwtMC40ODIsMC4wODljLTkuOTM4LTIuMDYyLTIxLjA2LTMuMjk0LTMzLjU1NC0zLjQ5NmMtMjIuNzYxLTAuMzc0LTQwLjAzMiw1Ljk2Ny01My4xMzMsMTUuOTA0YzAsMC0xNjEuNDA4LTY2LjQ5OC0xNTMuODk5LDgzLjYyOGMxLjU5NywzMS45MzYsNDUuNzc3LDI0MS42NTUsOTguNDcsMTc4LjMxICAgIGMxOS4yNTktMjMuMTYzLDM3Ljg3MS00Mi43NDgsMzcuODcxLTQyLjc0OGM5LjI0Miw2LjE0LDIwLjMwNyw5LjI3MiwzMS45MTIsOC4xNDdsMC44OTctMC43NjVjLTAuMjgxLDIuODc2LTAuMTU3LDUuNjg5LDAuMzU5LDkuMDE5Yy0xMy41NzIsMTUuMTY3LTkuNTg0LDE3LjgzLTM2LjcyMywyMy40MTZjLTI3LjQ1Nyw1LjY1OS0xMS4zMjYsMTUuNzM0LTAuNzk3LDE4LjM2N2MxMi43NjgsMy4xOTMsNDIuMzA1LDcuNzE2LDYyLjI2OC0yMC4yMjQgICAgbC0wLjc5NSwzLjE4OGM1LjMyNSw0LjI2LDQuOTY1LDMwLjYxOSw1LjcyLDQ5LjQ1MmMwLjc1NiwxOC44MzQsMi4wMTcsMzYuNDA5LDUuODU2LDQ2Ljc3MWMzLjgzOSwxMC4zNiw4LjM2OSwzNy4wNSw0NC4wMzYsMjkuNDA2YzI5LjgwOS02LjM4OCw1Mi42LTE1LjU4Miw1NC42NzctMTAxLjEwNyIgc3R5bGU9ImZpbGw6IzAwMDAwMDtzdHJva2U6IzAwMDAwMDtzdHJva2Utd2lkdGg6MzcuMzk1MztzdHJva2UtbGluZWNhcDpidXR0O3N0cm9rZS1saW5lam9pbjptaXRlcjsiLz4KPHBhdGggZD0iTTQwMi4zOTUsMjcxLjIzYy01MC4zMDIsMTAuMzc2LTUzLjc2LTYuNjU1LTUzLjc2LTYuNjU1YzUzLjExMS03OC44MDgsNzUuMzEzLTE3OC44NDMsNTYuMTUzLTIwMy4zMjZjLTUyLjI3LTY2Ljc4NS0xNDIuNzUyLTM1LjItMTQ0LjI2Mi0zNC4zOGwtMC40ODYsMC4wODdjLTkuOTM4LTIuMDYzLTIxLjA2LTMuMjkyLTMzLjU2LTMuNDk2Yy0yMi43NjEtMC4zNzMtNDAuMDI2LDUuOTY3LTUzLjEyNywxNS45MDIgICAgYzAsMC0xNjEuNDExLTY2LjQ5NS0xNTMuOTA0LDgzLjYzYzEuNTk3LDMxLjkzOCw0NS43NzYsMjQxLjY1Nyw5OC40NzEsMTc4LjMxMmMxOS4yNi0yMy4xNjMsMzcuODY5LTQyLjc0OCwzNy44NjktNDIuNzQ4YzkuMjQzLDYuMTQsMjAuMzA4LDkuMjcyLDMxLjkwOCw4LjE0N2wwLjkwMS0wLjc2NWMtMC4yOCwyLjg3Ni0wLjE1Miw1LjY4OSwwLjM2MSw5LjAxOWMtMTMuNTc1LDE1LjE2Ny05LjU4NiwxNy44My0zNi43MjMsMjMuNDE2ICAgIGMtMjcuNDU5LDUuNjU5LTExLjMyOCwxNS43MzQtMC43OTYsMTguMzY3YzEyLjc2OCwzLjE5Myw0Mi4zMDcsNy43MTYsNjIuMjY2LTIwLjIyNGwtMC43OTYsMy4xODhjNS4zMTksNC4yNiw5LjA1NCwyNy43MTEsOC40MjgsNDguOTY5Yy0wLjYyNiwyMS4yNTktMS4wNDQsMzUuODU0LDMuMTQ3LDQ3LjI1NGM0LjE5MSwxMS40LDguMzY4LDM3LjA1LDQ0LjA0MiwyOS40MDZjMjkuODA5LTYuMzg4LDQ1LjI1Ni0yMi45NDIsNDcuNDA1LTUwLjU1NSAgICBjMS41MjUtMTkuNjMxLDQuOTc2LTE2LjcyOSw1LjE5NC0zNC4yOGwyLjc2OC04LjMwOWMzLjE5Mi0yNi42MTEsMC41MDctMzUuMTk2LDE4Ljg3Mi0zMS4yMDNsNC40NjMsMC4zOTJjMTMuNTE3LDAuNjE1LDMxLjIwOC0yLjE3NCw0MS41OTEtN2MyMi4zNTgtMTAuMzc2LDM1LjYxOC0yNy43LDEzLjU3My0yMy4xNDh6IiBzdHlsZT0iZmlsbDojMzM2NzkxO3N0cm9rZTpub25lOyIvPgo8cGF0aCBkPSJNMjE1Ljg2NiwyODYuNDg0Yy0xLjM4NSw0OS41MTYsMC4zNDgsOTkuMzc3LDUuMTkzLDExMS40OTVjNC44NDgsMTIuMTE4LDE1LjIyMywzNS42ODgsNTAuOSwyOC4wNDVjMjkuODA2LTYuMzksNDAuNjUxLTE4Ljc1Niw0NS4zNTctNDYuMDUxYzMuNDY2LTIwLjA4MiwxMC4xNDgtNzUuODU0LDExLjAwNS04Ny4yODEiLz4KPHBhdGggZD0iTTE3My4xMDQsMzguMjU2YzAsMC0xNjEuNTIxLTY2LjAxNi0xNTQuMDEyLDg0LjEwOWMxLjU5NywzMS45MzgsNDUuNzc5LDI0MS42NjQsOTguNDczLDE3OC4zMTZjMTkuMjU2LTIzLjE2NiwzNi42NzEtNDEuMzM1LDM2LjY3MS00MS4zMzUiLz4KPHBhdGggZD0iTTI2MC4zNDksMjYuMjA3Yy01LjU5MSwxLjc1Myw4OS44NDgtMzQuODg5LDE0NC4wODcsMzQuNDE3YzE5LjE1OSwyNC40ODQtMy4wNDMsMTI0LjUxOS01Ni4xNTMsMjAzLjMyOSIvPgo8cGF0aCBkPSJNMzQ4LjI4MiwyNjMuOTUzYzAsMCwzLjQ2MSwxNy4wMzYsNTMuNzY0LDYuNjUzYzIyLjA0LTQuNTUyLDguNzc2LDEyLjc3NC0xMy41NzcsMjMuMTU1Yy0xOC4zNDUsOC41MTQtNTkuNDc0LDEwLjY5Ni02MC4xNDYtMS4wNjljLTEuNzI5LTMwLjM1NSwyMS42NDctMjEuMTMzLDE5Ljk2LTI4LjczOWMtMS41MjUtNi44NS0xMS45NzktMTMuNTczLTE4Ljg5NC0zMC4zMzggICAgYy02LjAzNy0xNC42MzMtODIuNzk2LTEyNi44NDksMjEuMjg3LTExMC4xODNjMy44MTMtMC43ODktMjcuMTQ2LTk5LjAwMi0xMjQuNTUzLTEwMC41OTljLTk3LjM4NS0xLjU5Ny05NC4xOSwxMTkuNzYyLTk0LjE5LDExOS43NjIiIHN0eWxlPSJzdHJva2UtbGluZWpvaW46YmV2ZWw7Ii8+CjxwYXRoIGQ9Ik0xODguNjA0LDI3NC4zMzRjLTEzLjU3NywxNS4xNjYtOS41ODQsMTcuODI5LTM2LjcyMywyMy40MTdjLTI3LjQ1OSw1LjY2LTExLjMyNiwxNS43MzMtMC43OTcsMTguMzY1YzEyLjc2OCwzLjE5NSw0Mi4zMDcsNy43MTgsNjIuMjY2LTIwLjIyOWM2LjA3OC04LjUwOS0wLjAzNi0yMi4wODYtOC4zODUtMjUuNTQ3Yy00LjAzNC0xLjY3MS05LjQyOC0zLjc2NS0xNi4zNjEsMy45OTR6Ii8+CjxwYXRoIGQ9Ik0xODcuNzE1LDI3NC4wNjljLTEuMzY4LTguOTE3LDIuOTMtMTkuNTI4LDcuNTM2LTMxLjk0MmM2LjkyMi0xOC42MjYsMjIuODkzLTM3LjI1NSwxMC4xMTctOTYuMzM5Yy05LjUyMy00NC4wMjktNzMuMzk2LTkuMTYzLTczLjQzNi0zLjE5M2MtMC4wMzksNS45NjgsMi44ODksMzAuMjYtMS4wNjcsNTguNTQ4Yy01LjE2MiwzNi45MTMsMjMuNDg4LDY4LjEzMiw1Ni40NzksNjQuOTM4Ii8+CjxwYXRoIGQ9Ik0xNzIuNTE3LDE0MS43Yy0wLjI4OCwyLjAzOSwzLjczMyw3LjQ4LDguOTc2LDguMjA3YzUuMjM0LDAuNzMsOS43MTQtMy41MjIsOS45OTgtNS41NTljMC4yODQtMi4wMzktMy43MzItNC4yODUtOC45NzctNS4wMTVjLTUuMjM3LTAuNzMxLTkuNzE5LDAuMzMzLTkuOTk2LDIuMzY3eiIgc3R5bGU9ImZpbGw6I0ZGRkZGRjtzdHJva2Utd2lkdGg6NC4xNTU7c3Ryb2tlLWxpbmVjYXA6YnV0dDtzdHJva2UtbGluZWpvaW46bWl0ZXI7Ii8+CjxwYXRoIGQ9Ik0zMzEuOTQxLDEzNy41NDNjMC4yODQsMi4wMzktMy43MzIsNy40OC04Ljk3Niw4LjIwN2MtNS4yMzgsMC43My05LjcxOC0zLjUyMi0xMC4wMDUtNS41NTljLTAuMjc3LTIuMDM5LDMuNzQtNC4yODUsOC45NzktNS4wMTVjNS4yMzktMC43Myw5LjcxOCwwLjMzMywxMC4wMDIsMi4zNjh6IiBzdHlsZT0iZmlsbDojRkZGRkZGO3N0cm9rZS13aWR0aDoyLjA3NzU7c3Ryb2tlLWxpbmVjYXA6YnV0dDtzdHJva2UtbGluZWpvaW46bWl0ZXI7Ii8+CjxwYXRoIGQ9Ik0zNTAuNjc2LDEyMy40MzJjMC44NjMsMTUuOTk0LTMuNDQ1LDI2Ljg4OC0zLjk4OCw0My45MTRjLTAuODA0LDI0Ljc0OCwxMS43OTksNTMuMDc0LTcuMTkxLDgxLjQzNSIvPgo8cGF0aCBkPSJNMCw2MC4yMzIiIHN0eWxlPSJzdHJva2Utd2lkdGg6MzsiLz4KPC9nPgo8L3N2Zz4=;container=0;" vertex="1" parent="r40zEPP65t3HedOzYuGG-369">
          <mxGeometry x="21.29470198675497" y="15.274070073955148" width="31.89250047470031" height="32.84927548894132" as="geometry" />
        </mxCell>
        <mxCell id="r40zEPP65t3HedOzYuGG-371" value="&lt;p style=&quot;line-height: 70%;&quot;&gt;&lt;span style=&quot;font-size: 8px;&quot;&gt;patroni replica&lt;/span&gt;&lt;/p&gt;" style="text;html=1;strokeColor=none;fillColor=none;align=center;verticalAlign=middle;whiteSpace=wrap;rounded=0;fontColor=#000000;container=0;" vertex="1" parent="r40zEPP65t3HedOzYuGG-369">
          <mxGeometry width="79.86754966887418" height="11.186405946233691" as="geometry" />
        </mxCell>
        <mxCell id="r40zEPP65t3HedOzYuGG-372" value="" style="edgeStyle=orthogonalEdgeStyle;html=1;endArrow=block;startArrow=block;startFill=1;endFill=1;strokeColor=#C7B8B8;rounded=0;exitX=0.5;exitY=1;exitDx=0;exitDy=0;entryX=0.5;entryY=0;entryDx=0;entryDy=0;curved=1;fontColor=#000000;endSize=3;startSize=3;" edge="1" parent="1" source="r40zEPP65t3HedOzYuGG-375">
          <mxGeometry width="100" relative="1" as="geometry">
            <mxPoint x="1150.07142384106" y="1147.3893229997216" as="sourcePoint" />
            <mxPoint x="484.9664900662253" y="830.6601475026588" as="targetPoint" />
          </mxGeometry>
        </mxCell>
        <mxCell id="r40zEPP65t3HedOzYuGG-373" value="" style="group" vertex="1" connectable="0" parent="1">
          <mxGeometry x="519.99" y="756" width="84.07390728476821" height="49.21062076490742" as="geometry" />
        </mxCell>
        <mxCell id="r40zEPP65t3HedOzYuGG-374" value="&lt;p style=&quot;line-height: 70%;&quot;&gt;&lt;span style=&quot;font-size: 8px;&quot;&gt;patroni primary&lt;/span&gt;&lt;/p&gt;" style="text;html=1;strokeColor=none;fillColor=none;align=center;verticalAlign=middle;whiteSpace=wrap;rounded=0;fontColor=#000000;container=0;" vertex="1" parent="r40zEPP65t3HedOzYuGG-373">
          <mxGeometry width="84.07390728476821" height="11.186405946233691" as="geometry" />
        </mxCell>
        <mxCell id="r40zEPP65t3HedOzYuGG-375" value="" style="shape=image;verticalLabelPosition=bottom;labelBackgroundColor=default;verticalAlign=top;aspect=fixed;imageAspect=0;image=data:image/svg+xml,PHN2ZyB4bWxucz0iaHR0cDovL3d3dy53My5vcmcvMjAwMC9zdmciIHhtbDpzcGFjZT0icHJlc2VydmUiIHZpZXdCb3g9IjAgMCA0MzIuMDcxIDQ0NS4zODMiIGhlaWdodD0iNDQ1LjM4M3B0IiB3aWR0aD0iNDMyLjA3MXB0Ij4KPGcgc3R5bGU9ImZpbGwtcnVsZTpub256ZXJvO2NsaXAtcnVsZTpub256ZXJvO3N0cm9rZTojMDAwMDAwO3N0cm9rZS1taXRlcmxpbWl0OjQ7IiBpZD0ib3JnaW5hbCI+Cgk8L2c+CjxnIHN0eWxlPSJmaWxsLXJ1bGU6bm9uemVybztjbGlwLXJ1bGU6bm9uemVybztmaWxsOm5vbmU7c3Ryb2tlOiNGRkZGRkY7c3Ryb2tlLXdpZHRoOjEyLjQ2NTE7c3Ryb2tlLWxpbmVjYXA6cm91bmQ7c3Ryb2tlLWxpbmVqb2luOnJvdW5kO3N0cm9rZS1taXRlcmxpbWl0OjQ7IiBpZD0iTGF5ZXJfeDAwMjBfMyI+CjxwYXRoIGQ9Ik0zMjMuMjA1LDMyNC4yMjdjMi44MzMtMjMuNjAxLDEuOTg0LTI3LjA2MiwxOS41NjMtMjMuMjM5bDQuNDYzLDAuMzkyYzEzLjUxNywwLjYxNSwzMS4xOTktMi4xNzQsNDEuNTg3LTdjMjIuMzYyLTEwLjM3NiwzNS42MjItMjcuNywxMy41NzItMjMuMTQ4Yy01MC4yOTcsMTAuMzc2LTUzLjc1NS02LjY1NS01My43NTUtNi42NTVjNTMuMTExLTc4LjgwMyw3NS4zMTMtMTc4LjgzNiw1Ni4xNDktMjAzLjMyMiAgICBDMzUyLjUxNC01LjUzNCwyNjIuMDM2LDI2LjA0OSwyNjAuNTIyLDI2Ljg2OWwtMC40ODIsMC4wODljLTkuOTM4LTIuMDYyLTIxLjA2LTMuMjk0LTMzLjU1NC0zLjQ5NmMtMjIuNzYxLTAuMzc0LTQwLjAzMiw1Ljk2Ny01My4xMzMsMTUuOTA0YzAsMC0xNjEuNDA4LTY2LjQ5OC0xNTMuODk5LDgzLjYyOGMxLjU5NywzMS45MzYsNDUuNzc3LDI0MS42NTUsOTguNDcsMTc4LjMxICAgIGMxOS4yNTktMjMuMTYzLDM3Ljg3MS00Mi43NDgsMzcuODcxLTQyLjc0OGM5LjI0Miw2LjE0LDIwLjMwNyw5LjI3MiwzMS45MTIsOC4xNDdsMC44OTctMC43NjVjLTAuMjgxLDIuODc2LTAuMTU3LDUuNjg5LDAuMzU5LDkuMDE5Yy0xMy41NzIsMTUuMTY3LTkuNTg0LDE3LjgzLTM2LjcyMywyMy40MTZjLTI3LjQ1Nyw1LjY1OS0xMS4zMjYsMTUuNzM0LTAuNzk3LDE4LjM2N2MxMi43NjgsMy4xOTMsNDIuMzA1LDcuNzE2LDYyLjI2OC0yMC4yMjQgICAgbC0wLjc5NSwzLjE4OGM1LjMyNSw0LjI2LDQuOTY1LDMwLjYxOSw1LjcyLDQ5LjQ1MmMwLjc1NiwxOC44MzQsMi4wMTcsMzYuNDA5LDUuODU2LDQ2Ljc3MWMzLjgzOSwxMC4zNiw4LjM2OSwzNy4wNSw0NC4wMzYsMjkuNDA2YzI5LjgwOS02LjM4OCw1Mi42LTE1LjU4Miw1NC42NzctMTAxLjEwNyIgc3R5bGU9ImZpbGw6IzAwMDAwMDtzdHJva2U6IzAwMDAwMDtzdHJva2Utd2lkdGg6MzcuMzk1MztzdHJva2UtbGluZWNhcDpidXR0O3N0cm9rZS1saW5lam9pbjptaXRlcjsiLz4KPHBhdGggZD0iTTQwMi4zOTUsMjcxLjIzYy01MC4zMDIsMTAuMzc2LTUzLjc2LTYuNjU1LTUzLjc2LTYuNjU1YzUzLjExMS03OC44MDgsNzUuMzEzLTE3OC44NDMsNTYuMTUzLTIwMy4zMjZjLTUyLjI3LTY2Ljc4NS0xNDIuNzUyLTM1LjItMTQ0LjI2Mi0zNC4zOGwtMC40ODYsMC4wODdjLTkuOTM4LTIuMDYzLTIxLjA2LTMuMjkyLTMzLjU2LTMuNDk2Yy0yMi43NjEtMC4zNzMtNDAuMDI2LDUuOTY3LTUzLjEyNywxNS45MDIgICAgYzAsMC0xNjEuNDExLTY2LjQ5NS0xNTMuOTA0LDgzLjYzYzEuNTk3LDMxLjkzOCw0NS43NzYsMjQxLjY1Nyw5OC40NzEsMTc4LjMxMmMxOS4yNi0yMy4xNjMsMzcuODY5LTQyLjc0OCwzNy44NjktNDIuNzQ4YzkuMjQzLDYuMTQsMjAuMzA4LDkuMjcyLDMxLjkwOCw4LjE0N2wwLjkwMS0wLjc2NWMtMC4yOCwyLjg3Ni0wLjE1Miw1LjY4OSwwLjM2MSw5LjAxOWMtMTMuNTc1LDE1LjE2Ny05LjU4NiwxNy44My0zNi43MjMsMjMuNDE2ICAgIGMtMjcuNDU5LDUuNjU5LTExLjMyOCwxNS43MzQtMC43OTYsMTguMzY3YzEyLjc2OCwzLjE5Myw0Mi4zMDcsNy43MTYsNjIuMjY2LTIwLjIyNGwtMC43OTYsMy4xODhjNS4zMTksNC4yNiw5LjA1NCwyNy43MTEsOC40MjgsNDguOTY5Yy0wLjYyNiwyMS4yNTktMS4wNDQsMzUuODU0LDMuMTQ3LDQ3LjI1NGM0LjE5MSwxMS40LDguMzY4LDM3LjA1LDQ0LjA0MiwyOS40MDZjMjkuODA5LTYuMzg4LDQ1LjI1Ni0yMi45NDIsNDcuNDA1LTUwLjU1NSAgICBjMS41MjUtMTkuNjMxLDQuOTc2LTE2LjcyOSw1LjE5NC0zNC4yOGwyLjc2OC04LjMwOWMzLjE5Mi0yNi42MTEsMC41MDctMzUuMTk2LDE4Ljg3Mi0zMS4yMDNsNC40NjMsMC4zOTJjMTMuNTE3LDAuNjE1LDMxLjIwOC0yLjE3NCw0MS41OTEtN2MyMi4zNTgtMTAuMzc2LDM1LjYxOC0yNy43LDEzLjU3My0yMy4xNDh6IiBzdHlsZT0iZmlsbDojMzM2NzkxO3N0cm9rZTpub25lOyIvPgo8cGF0aCBkPSJNMjE1Ljg2NiwyODYuNDg0Yy0xLjM4NSw0OS41MTYsMC4zNDgsOTkuMzc3LDUuMTkzLDExMS40OTVjNC44NDgsMTIuMTE4LDE1LjIyMywzNS42ODgsNTAuOSwyOC4wNDVjMjkuODA2LTYuMzksNDAuNjUxLTE4Ljc1Niw0NS4zNTctNDYuMDUxYzMuNDY2LTIwLjA4MiwxMC4xNDgtNzUuODU0LDExLjAwNS04Ny4yODEiLz4KPHBhdGggZD0iTTE3My4xMDQsMzguMjU2YzAsMC0xNjEuNTIxLTY2LjAxNi0xNTQuMDEyLDg0LjEwOWMxLjU5NywzMS45MzgsNDUuNzc5LDI0MS42NjQsOTguNDczLDE3OC4zMTZjMTkuMjU2LTIzLjE2NiwzNi42NzEtNDEuMzM1LDM2LjY3MS00MS4zMzUiLz4KPHBhdGggZD0iTTI2MC4zNDksMjYuMjA3Yy01LjU5MSwxLjc1Myw4OS44NDgtMzQuODg5LDE0NC4wODcsMzQuNDE3YzE5LjE1OSwyNC40ODQtMy4wNDMsMTI0LjUxOS01Ni4xNTMsMjAzLjMyOSIvPgo8cGF0aCBkPSJNMzQ4LjI4MiwyNjMuOTUzYzAsMCwzLjQ2MSwxNy4wMzYsNTMuNzY0LDYuNjUzYzIyLjA0LTQuNTUyLDguNzc2LDEyLjc3NC0xMy41NzcsMjMuMTU1Yy0xOC4zNDUsOC41MTQtNTkuNDc0LDEwLjY5Ni02MC4xNDYtMS4wNjljLTEuNzI5LTMwLjM1NSwyMS42NDctMjEuMTMzLDE5Ljk2LTI4LjczOWMtMS41MjUtNi44NS0xMS45NzktMTMuNTczLTE4Ljg5NC0zMC4zMzggICAgYy02LjAzNy0xNC42MzMtODIuNzk2LTEyNi44NDksMjEuMjg3LTExMC4xODNjMy44MTMtMC43ODktMjcuMTQ2LTk5LjAwMi0xMjQuNTUzLTEwMC41OTljLTk3LjM4NS0xLjU5Ny05NC4xOSwxMTkuNzYyLTk0LjE5LDExOS43NjIiIHN0eWxlPSJzdHJva2UtbGluZWpvaW46YmV2ZWw7Ii8+CjxwYXRoIGQ9Ik0xODguNjA0LDI3NC4zMzRjLTEzLjU3NywxNS4xNjYtOS41ODQsMTcuODI5LTM2LjcyMywyMy40MTdjLTI3LjQ1OSw1LjY2LTExLjMyNiwxNS43MzMtMC43OTcsMTguMzY1YzEyLjc2OCwzLjE5NSw0Mi4zMDcsNy43MTgsNjIuMjY2LTIwLjIyOWM2LjA3OC04LjUwOS0wLjAzNi0yMi4wODYtOC4zODUtMjUuNTQ3Yy00LjAzNC0xLjY3MS05LjQyOC0zLjc2NS0xNi4zNjEsMy45OTR6Ii8+CjxwYXRoIGQ9Ik0xODcuNzE1LDI3NC4wNjljLTEuMzY4LTguOTE3LDIuOTMtMTkuNTI4LDcuNTM2LTMxLjk0MmM2LjkyMi0xOC42MjYsMjIuODkzLTM3LjI1NSwxMC4xMTctOTYuMzM5Yy05LjUyMy00NC4wMjktNzMuMzk2LTkuMTYzLTczLjQzNi0zLjE5M2MtMC4wMzksNS45NjgsMi44ODksMzAuMjYtMS4wNjcsNTguNTQ4Yy01LjE2MiwzNi45MTMsMjMuNDg4LDY4LjEzMiw1Ni40NzksNjQuOTM4Ii8+CjxwYXRoIGQ9Ik0xNzIuNTE3LDE0MS43Yy0wLjI4OCwyLjAzOSwzLjczMyw3LjQ4LDguOTc2LDguMjA3YzUuMjM0LDAuNzMsOS43MTQtMy41MjIsOS45OTgtNS41NTljMC4yODQtMi4wMzktMy43MzItNC4yODUtOC45NzctNS4wMTVjLTUuMjM3LTAuNzMxLTkuNzE5LDAuMzMzLTkuOTk2LDIuMzY3eiIgc3R5bGU9ImZpbGw6I0ZGRkZGRjtzdHJva2Utd2lkdGg6NC4xNTU7c3Ryb2tlLWxpbmVjYXA6YnV0dDtzdHJva2UtbGluZWpvaW46bWl0ZXI7Ii8+CjxwYXRoIGQ9Ik0zMzEuOTQxLDEzNy41NDNjMC4yODQsMi4wMzktMy43MzIsNy40OC04Ljk3Niw4LjIwN2MtNS4yMzgsMC43My05LjcxOC0zLjUyMi0xMC4wMDUtNS41NTljLTAuMjc3LTIuMDM5LDMuNzQtNC4yODUsOC45NzktNS4wMTVjNS4yMzktMC43Myw5LjcxOCwwLjMzMywxMC4wMDIsMi4zNjh6IiBzdHlsZT0iZmlsbDojRkZGRkZGO3N0cm9rZS13aWR0aDoyLjA3NzU7c3Ryb2tlLWxpbmVjYXA6YnV0dDtzdHJva2UtbGluZWpvaW46bWl0ZXI7Ii8+CjxwYXRoIGQ9Ik0zNTAuNjc2LDEyMy40MzJjMC44NjMsMTUuOTk0LTMuNDQ1LDI2Ljg4OC0zLjk4OCw0My45MTRjLTAuODA0LDI0Ljc0OCwxMS43OTksNTMuMDc0LTcuMTkxLDgxLjQzNSIvPgo8cGF0aCBkPSJNMCw2MC4yMzIiIHN0eWxlPSJzdHJva2Utd2lkdGg6MzsiLz4KPC9nPgo8L3N2Zz4=;container=0;" vertex="1" parent="r40zEPP65t3HedOzYuGG-373">
          <mxGeometry x="22.517615894039636" y="16.3613452759661" width="31.89250047470031" height="32.85" as="geometry" />
        </mxCell>
        <mxCell id="r40zEPP65t3HedOzYuGG-386" value="" style="shape=mxgraph.mockup.markup.redX;fillColor=#ff0000;html=1;shadow=0;strokeColor=none;aspect=fixed;" vertex="1" parent="r40zEPP65t3HedOzYuGG-373">
          <mxGeometry x="22.039999999999964" y="4.610000000000014" width="40" height="40" as="geometry" />
        </mxCell>
        <mxCell id="r40zEPP65t3HedOzYuGG-377" value="" style="group" vertex="1" connectable="0" parent="1">
          <mxGeometry x="588.0324503311258" y="831.3098483825493" width="79.86754966887418" height="57.86652098502837" as="geometry" />
        </mxCell>
        <mxCell id="r40zEPP65t3HedOzYuGG-378" value="&lt;p style=&quot;line-height: 70%;&quot;&gt;&lt;span style=&quot;font-size: 8px;&quot;&gt;patroni replica&lt;/span&gt;&lt;/p&gt;" style="text;html=1;strokeColor=none;fillColor=none;align=center;verticalAlign=middle;whiteSpace=wrap;rounded=0;fontColor=#000000;container=0;" vertex="1" parent="r40zEPP65t3HedOzYuGG-377">
          <mxGeometry width="79.86754966887418" height="11.186405946233691" as="geometry" />
        </mxCell>
        <mxCell id="r40zEPP65t3HedOzYuGG-379" value="" style="shape=image;verticalLabelPosition=bottom;labelBackgroundColor=default;verticalAlign=top;aspect=fixed;imageAspect=0;image=data:image/svg+xml,PHN2ZyB4bWxucz0iaHR0cDovL3d3dy53My5vcmcvMjAwMC9zdmciIHhtbDpzcGFjZT0icHJlc2VydmUiIHZpZXdCb3g9IjAgMCA0MzIuMDcxIDQ0NS4zODMiIGhlaWdodD0iNDQ1LjM4M3B0IiB3aWR0aD0iNDMyLjA3MXB0Ij4KPGcgc3R5bGU9ImZpbGwtcnVsZTpub256ZXJvO2NsaXAtcnVsZTpub256ZXJvO3N0cm9rZTojMDAwMDAwO3N0cm9rZS1taXRlcmxpbWl0OjQ7IiBpZD0ib3JnaW5hbCI+Cgk8L2c+CjxnIHN0eWxlPSJmaWxsLXJ1bGU6bm9uemVybztjbGlwLXJ1bGU6bm9uemVybztmaWxsOm5vbmU7c3Ryb2tlOiNGRkZGRkY7c3Ryb2tlLXdpZHRoOjEyLjQ2NTE7c3Ryb2tlLWxpbmVjYXA6cm91bmQ7c3Ryb2tlLWxpbmVqb2luOnJvdW5kO3N0cm9rZS1taXRlcmxpbWl0OjQ7IiBpZD0iTGF5ZXJfeDAwMjBfMyI+CjxwYXRoIGQ9Ik0zMjMuMjA1LDMyNC4yMjdjMi44MzMtMjMuNjAxLDEuOTg0LTI3LjA2MiwxOS41NjMtMjMuMjM5bDQuNDYzLDAuMzkyYzEzLjUxNywwLjYxNSwzMS4xOTktMi4xNzQsNDEuNTg3LTdjMjIuMzYyLTEwLjM3NiwzNS42MjItMjcuNywxMy41NzItMjMuMTQ4Yy01MC4yOTcsMTAuMzc2LTUzLjc1NS02LjY1NS01My43NTUtNi42NTVjNTMuMTExLTc4LjgwMyw3NS4zMTMtMTc4LjgzNiw1Ni4xNDktMjAzLjMyMiAgICBDMzUyLjUxNC01LjUzNCwyNjIuMDM2LDI2LjA0OSwyNjAuNTIyLDI2Ljg2OWwtMC40ODIsMC4wODljLTkuOTM4LTIuMDYyLTIxLjA2LTMuMjk0LTMzLjU1NC0zLjQ5NmMtMjIuNzYxLTAuMzc0LTQwLjAzMiw1Ljk2Ny01My4xMzMsMTUuOTA0YzAsMC0xNjEuNDA4LTY2LjQ5OC0xNTMuODk5LDgzLjYyOGMxLjU5NywzMS45MzYsNDUuNzc3LDI0MS42NTUsOTguNDcsMTc4LjMxICAgIGMxOS4yNTktMjMuMTYzLDM3Ljg3MS00Mi43NDgsMzcuODcxLTQyLjc0OGM5LjI0Miw2LjE0LDIwLjMwNyw5LjI3MiwzMS45MTIsOC4xNDdsMC44OTctMC43NjVjLTAuMjgxLDIuODc2LTAuMTU3LDUuNjg5LDAuMzU5LDkuMDE5Yy0xMy41NzIsMTUuMTY3LTkuNTg0LDE3LjgzLTM2LjcyMywyMy40MTZjLTI3LjQ1Nyw1LjY1OS0xMS4zMjYsMTUuNzM0LTAuNzk3LDE4LjM2N2MxMi43NjgsMy4xOTMsNDIuMzA1LDcuNzE2LDYyLjI2OC0yMC4yMjQgICAgbC0wLjc5NSwzLjE4OGM1LjMyNSw0LjI2LDQuOTY1LDMwLjYxOSw1LjcyLDQ5LjQ1MmMwLjc1NiwxOC44MzQsMi4wMTcsMzYuNDA5LDUuODU2LDQ2Ljc3MWMzLjgzOSwxMC4zNiw4LjM2OSwzNy4wNSw0NC4wMzYsMjkuNDA2YzI5LjgwOS02LjM4OCw1Mi42LTE1LjU4Miw1NC42NzctMTAxLjEwNyIgc3R5bGU9ImZpbGw6IzAwMDAwMDtzdHJva2U6IzAwMDAwMDtzdHJva2Utd2lkdGg6MzcuMzk1MztzdHJva2UtbGluZWNhcDpidXR0O3N0cm9rZS1saW5lam9pbjptaXRlcjsiLz4KPHBhdGggZD0iTTQwMi4zOTUsMjcxLjIzYy01MC4zMDIsMTAuMzc2LTUzLjc2LTYuNjU1LTUzLjc2LTYuNjU1YzUzLjExMS03OC44MDgsNzUuMzEzLTE3OC44NDMsNTYuMTUzLTIwMy4zMjZjLTUyLjI3LTY2Ljc4NS0xNDIuNzUyLTM1LjItMTQ0LjI2Mi0zNC4zOGwtMC40ODYsMC4wODdjLTkuOTM4LTIuMDYzLTIxLjA2LTMuMjkyLTMzLjU2LTMuNDk2Yy0yMi43NjEtMC4zNzMtNDAuMDI2LDUuOTY3LTUzLjEyNywxNS45MDIgICAgYzAsMC0xNjEuNDExLTY2LjQ5NS0xNTMuOTA0LDgzLjYzYzEuNTk3LDMxLjkzOCw0NS43NzYsMjQxLjY1Nyw5OC40NzEsMTc4LjMxMmMxOS4yNi0yMy4xNjMsMzcuODY5LTQyLjc0OCwzNy44NjktNDIuNzQ4YzkuMjQzLDYuMTQsMjAuMzA4LDkuMjcyLDMxLjkwOCw4LjE0N2wwLjkwMS0wLjc2NWMtMC4yOCwyLjg3Ni0wLjE1Miw1LjY4OSwwLjM2MSw5LjAxOWMtMTMuNTc1LDE1LjE2Ny05LjU4NiwxNy44My0zNi43MjMsMjMuNDE2ICAgIGMtMjcuNDU5LDUuNjU5LTExLjMyOCwxNS43MzQtMC43OTYsMTguMzY3YzEyLjc2OCwzLjE5Myw0Mi4zMDcsNy43MTYsNjIuMjY2LTIwLjIyNGwtMC43OTYsMy4xODhjNS4zMTksNC4yNiw5LjA1NCwyNy43MTEsOC40MjgsNDguOTY5Yy0wLjYyNiwyMS4yNTktMS4wNDQsMzUuODU0LDMuMTQ3LDQ3LjI1NGM0LjE5MSwxMS40LDguMzY4LDM3LjA1LDQ0LjA0MiwyOS40MDZjMjkuODA5LTYuMzg4LDQ1LjI1Ni0yMi45NDIsNDcuNDA1LTUwLjU1NSAgICBjMS41MjUtMTkuNjMxLDQuOTc2LTE2LjcyOSw1LjE5NC0zNC4yOGwyLjc2OC04LjMwOWMzLjE5Mi0yNi42MTEsMC41MDctMzUuMTk2LDE4Ljg3Mi0zMS4yMDNsNC40NjMsMC4zOTJjMTMuNTE3LDAuNjE1LDMxLjIwOC0yLjE3NCw0MS41OTEtN2MyMi4zNTgtMTAuMzc2LDM1LjYxOC0yNy43LDEzLjU3My0yMy4xNDh6IiBzdHlsZT0iZmlsbDojMzM2NzkxO3N0cm9rZTpub25lOyIvPgo8cGF0aCBkPSJNMjE1Ljg2NiwyODYuNDg0Yy0xLjM4NSw0OS41MTYsMC4zNDgsOTkuMzc3LDUuMTkzLDExMS40OTVjNC44NDgsMTIuMTE4LDE1LjIyMywzNS42ODgsNTAuOSwyOC4wNDVjMjkuODA2LTYuMzksNDAuNjUxLTE4Ljc1Niw0NS4zNTctNDYuMDUxYzMuNDY2LTIwLjA4MiwxMC4xNDgtNzUuODU0LDExLjAwNS04Ny4yODEiLz4KPHBhdGggZD0iTTE3My4xMDQsMzguMjU2YzAsMC0xNjEuNTIxLTY2LjAxNi0xNTQuMDEyLDg0LjEwOWMxLjU5NywzMS45MzgsNDUuNzc5LDI0MS42NjQsOTguNDczLDE3OC4zMTZjMTkuMjU2LTIzLjE2NiwzNi42NzEtNDEuMzM1LDM2LjY3MS00MS4zMzUiLz4KPHBhdGggZD0iTTI2MC4zNDksMjYuMjA3Yy01LjU5MSwxLjc1Myw4OS44NDgtMzQuODg5LDE0NC4wODcsMzQuNDE3YzE5LjE1OSwyNC40ODQtMy4wNDMsMTI0LjUxOS01Ni4xNTMsMjAzLjMyOSIvPgo8cGF0aCBkPSJNMzQ4LjI4MiwyNjMuOTUzYzAsMCwzLjQ2MSwxNy4wMzYsNTMuNzY0LDYuNjUzYzIyLjA0LTQuNTUyLDguNzc2LDEyLjc3NC0xMy41NzcsMjMuMTU1Yy0xOC4zNDUsOC41MTQtNTkuNDc0LDEwLjY5Ni02MC4xNDYtMS4wNjljLTEuNzI5LTMwLjM1NSwyMS42NDctMjEuMTMzLDE5Ljk2LTI4LjczOWMtMS41MjUtNi44NS0xMS45NzktMTMuNTczLTE4Ljg5NC0zMC4zMzggICAgYy02LjAzNy0xNC42MzMtODIuNzk2LTEyNi44NDksMjEuMjg3LTExMC4xODNjMy44MTMtMC43ODktMjcuMTQ2LTk5LjAwMi0xMjQuNTUzLTEwMC41OTljLTk3LjM4NS0xLjU5Ny05NC4xOSwxMTkuNzYyLTk0LjE5LDExOS43NjIiIHN0eWxlPSJzdHJva2UtbGluZWpvaW46YmV2ZWw7Ii8+CjxwYXRoIGQ9Ik0xODguNjA0LDI3NC4zMzRjLTEzLjU3NywxNS4xNjYtOS41ODQsMTcuODI5LTM2LjcyMywyMy40MTdjLTI3LjQ1OSw1LjY2LTExLjMyNiwxNS43MzMtMC43OTcsMTguMzY1YzEyLjc2OCwzLjE5NSw0Mi4zMDcsNy43MTgsNjIuMjY2LTIwLjIyOWM2LjA3OC04LjUwOS0wLjAzNi0yMi4wODYtOC4zODUtMjUuNTQ3Yy00LjAzNC0xLjY3MS05LjQyOC0zLjc2NS0xNi4zNjEsMy45OTR6Ii8+CjxwYXRoIGQ9Ik0xODcuNzE1LDI3NC4wNjljLTEuMzY4LTguOTE3LDIuOTMtMTkuNTI4LDcuNTM2LTMxLjk0MmM2LjkyMi0xOC42MjYsMjIuODkzLTM3LjI1NSwxMC4xMTctOTYuMzM5Yy05LjUyMy00NC4wMjktNzMuMzk2LTkuMTYzLTczLjQzNi0zLjE5M2MtMC4wMzksNS45NjgsMi44ODksMzAuMjYtMS4wNjcsNTguNTQ4Yy01LjE2MiwzNi45MTMsMjMuNDg4LDY4LjEzMiw1Ni40NzksNjQuOTM4Ii8+CjxwYXRoIGQ9Ik0xNzIuNTE3LDE0MS43Yy0wLjI4OCwyLjAzOSwzLjczMyw3LjQ4LDguOTc2LDguMjA3YzUuMjM0LDAuNzMsOS43MTQtMy41MjIsOS45OTgtNS41NTljMC4yODQtMi4wMzktMy43MzItNC4yODUtOC45NzctNS4wMTVjLTUuMjM3LTAuNzMxLTkuNzE5LDAuMzMzLTkuOTk2LDIuMzY3eiIgc3R5bGU9ImZpbGw6I0ZGRkZGRjtzdHJva2Utd2lkdGg6NC4xNTU7c3Ryb2tlLWxpbmVjYXA6YnV0dDtzdHJva2UtbGluZWpvaW46bWl0ZXI7Ii8+CjxwYXRoIGQ9Ik0zMzEuOTQxLDEzNy41NDNjMC4yODQsMi4wMzktMy43MzIsNy40OC04Ljk3Niw4LjIwN2MtNS4yMzgsMC43My05LjcxOC0zLjUyMi0xMC4wMDUtNS41NTljLTAuMjc3LTIuMDM5LDMuNzQtNC4yODUsOC45NzktNS4wMTVjNS4yMzktMC43Myw5LjcxOCwwLjMzMywxMC4wMDIsMi4zNjh6IiBzdHlsZT0iZmlsbDojRkZGRkZGO3N0cm9rZS13aWR0aDoyLjA3NzU7c3Ryb2tlLWxpbmVjYXA6YnV0dDtzdHJva2UtbGluZWpvaW46bWl0ZXI7Ii8+CjxwYXRoIGQ9Ik0zNTAuNjc2LDEyMy40MzJjMC44NjMsMTUuOTk0LTMuNDQ1LDI2Ljg4OC0zLjk4OCw0My45MTRjLTAuODA0LDI0Ljc0OCwxMS43OTksNTMuMDc0LTcuMTkxLDgxLjQzNSIvPgo8cGF0aCBkPSJNMCw2MC4yMzIiIHN0eWxlPSJzdHJva2Utd2lkdGg6MzsiLz4KPC9nPgo8L3N2Zz4=;container=0;" vertex="1" parent="r40zEPP65t3HedOzYuGG-377">
          <mxGeometry x="23.29470198675497" y="14.55073856164228" width="31.89250047470031" height="32.84927548894132" as="geometry" />
        </mxCell>
        <mxCell id="r40zEPP65t3HedOzYuGG-380" value="" style="edgeStyle=orthogonalEdgeStyle;html=1;endArrow=block;startArrow=block;startFill=1;endFill=1;strokeColor=#C7B8B8;rounded=0;curved=1;entryX=0.5;entryY=0;entryDx=0;entryDy=0;exitX=0.5;exitY=1;exitDx=0;exitDy=0;fontColor=#000000;endSize=3;startSize=3;" edge="1" parent="1" source="r40zEPP65t3HedOzYuGG-375" target="r40zEPP65t3HedOzYuGG-378">
          <mxGeometry width="100" relative="1" as="geometry">
            <mxPoint x="569.03" y="815.31" as="sourcePoint" />
            <mxPoint x="569.03" y="841.31" as="targetPoint" />
          </mxGeometry>
        </mxCell>
        <mxCell id="r40zEPP65t3HedOzYuGG-382" value="" style="edgeStyle=orthogonalEdgeStyle;html=1;endArrow=block;startArrow=block;startFill=1;endFill=1;strokeColor=#C7B8B8;rounded=0;exitX=0;exitY=0.5;exitDx=0;exitDy=0;entryX=1;entryY=0.5;entryDx=0;entryDy=0;curved=1;fontColor=#000000;endSize=3;startSize=3;" edge="1" parent="1" source="r40zEPP65t3HedOzYuGG-379" target="r40zEPP65t3HedOzYuGG-370">
          <mxGeometry width="100" relative="1" as="geometry">
            <mxPoint x="568.03" y="815.31" as="sourcePoint" />
            <mxPoint x="495.03" y="840.31" as="targetPoint" />
          </mxGeometry>
        </mxCell>
        <mxCell id="r40zEPP65t3HedOzYuGG-387" value="" style="rounded=0;whiteSpace=wrap;html=1;fillColor=#FFFFFF;glass=0;strokeColor=default;" vertex="1" parent="1">
          <mxGeometry x="763" y="740" width="227" height="160" as="geometry" />
        </mxCell>
        <mxCell id="r40zEPP65t3HedOzYuGG-388" value="" style="group" vertex="1" connectable="0" parent="1">
          <mxGeometry x="766.0027152317881" y="830.6601475026587" width="79.86754966887418" height="58.58985249734124" as="geometry" />
        </mxCell>
        <mxCell id="r40zEPP65t3HedOzYuGG-389" value="" style="shape=image;verticalLabelPosition=bottom;labelBackgroundColor=default;verticalAlign=top;aspect=fixed;imageAspect=0;image=data:image/svg+xml,PHN2ZyB4bWxucz0iaHR0cDovL3d3dy53My5vcmcvMjAwMC9zdmciIHhtbDpzcGFjZT0icHJlc2VydmUiIHZpZXdCb3g9IjAgMCA0MzIuMDcxIDQ0NS4zODMiIGhlaWdodD0iNDQ1LjM4M3B0IiB3aWR0aD0iNDMyLjA3MXB0Ij4KPGcgc3R5bGU9ImZpbGwtcnVsZTpub256ZXJvO2NsaXAtcnVsZTpub256ZXJvO3N0cm9rZTojMDAwMDAwO3N0cm9rZS1taXRlcmxpbWl0OjQ7IiBpZD0ib3JnaW5hbCI+Cgk8L2c+CjxnIHN0eWxlPSJmaWxsLXJ1bGU6bm9uemVybztjbGlwLXJ1bGU6bm9uemVybztmaWxsOm5vbmU7c3Ryb2tlOiNGRkZGRkY7c3Ryb2tlLXdpZHRoOjEyLjQ2NTE7c3Ryb2tlLWxpbmVjYXA6cm91bmQ7c3Ryb2tlLWxpbmVqb2luOnJvdW5kO3N0cm9rZS1taXRlcmxpbWl0OjQ7IiBpZD0iTGF5ZXJfeDAwMjBfMyI+CjxwYXRoIGQ9Ik0zMjMuMjA1LDMyNC4yMjdjMi44MzMtMjMuNjAxLDEuOTg0LTI3LjA2MiwxOS41NjMtMjMuMjM5bDQuNDYzLDAuMzkyYzEzLjUxNywwLjYxNSwzMS4xOTktMi4xNzQsNDEuNTg3LTdjMjIuMzYyLTEwLjM3NiwzNS42MjItMjcuNywxMy41NzItMjMuMTQ4Yy01MC4yOTcsMTAuMzc2LTUzLjc1NS02LjY1NS01My43NTUtNi42NTVjNTMuMTExLTc4LjgwMyw3NS4zMTMtMTc4LjgzNiw1Ni4xNDktMjAzLjMyMiAgICBDMzUyLjUxNC01LjUzNCwyNjIuMDM2LDI2LjA0OSwyNjAuNTIyLDI2Ljg2OWwtMC40ODIsMC4wODljLTkuOTM4LTIuMDYyLTIxLjA2LTMuMjk0LTMzLjU1NC0zLjQ5NmMtMjIuNzYxLTAuMzc0LTQwLjAzMiw1Ljk2Ny01My4xMzMsMTUuOTA0YzAsMC0xNjEuNDA4LTY2LjQ5OC0xNTMuODk5LDgzLjYyOGMxLjU5NywzMS45MzYsNDUuNzc3LDI0MS42NTUsOTguNDcsMTc4LjMxICAgIGMxOS4yNTktMjMuMTYzLDM3Ljg3MS00Mi43NDgsMzcuODcxLTQyLjc0OGM5LjI0Miw2LjE0LDIwLjMwNyw5LjI3MiwzMS45MTIsOC4xNDdsMC44OTctMC43NjVjLTAuMjgxLDIuODc2LTAuMTU3LDUuNjg5LDAuMzU5LDkuMDE5Yy0xMy41NzIsMTUuMTY3LTkuNTg0LDE3LjgzLTM2LjcyMywyMy40MTZjLTI3LjQ1Nyw1LjY1OS0xMS4zMjYsMTUuNzM0LTAuNzk3LDE4LjM2N2MxMi43NjgsMy4xOTMsNDIuMzA1LDcuNzE2LDYyLjI2OC0yMC4yMjQgICAgbC0wLjc5NSwzLjE4OGM1LjMyNSw0LjI2LDQuOTY1LDMwLjYxOSw1LjcyLDQ5LjQ1MmMwLjc1NiwxOC44MzQsMi4wMTcsMzYuNDA5LDUuODU2LDQ2Ljc3MWMzLjgzOSwxMC4zNiw4LjM2OSwzNy4wNSw0NC4wMzYsMjkuNDA2YzI5LjgwOS02LjM4OCw1Mi42LTE1LjU4Miw1NC42NzctMTAxLjEwNyIgc3R5bGU9ImZpbGw6IzAwMDAwMDtzdHJva2U6IzAwMDAwMDtzdHJva2Utd2lkdGg6MzcuMzk1MztzdHJva2UtbGluZWNhcDpidXR0O3N0cm9rZS1saW5lam9pbjptaXRlcjsiLz4KPHBhdGggZD0iTTQwMi4zOTUsMjcxLjIzYy01MC4zMDIsMTAuMzc2LTUzLjc2LTYuNjU1LTUzLjc2LTYuNjU1YzUzLjExMS03OC44MDgsNzUuMzEzLTE3OC44NDMsNTYuMTUzLTIwMy4zMjZjLTUyLjI3LTY2Ljc4NS0xNDIuNzUyLTM1LjItMTQ0LjI2Mi0zNC4zOGwtMC40ODYsMC4wODdjLTkuOTM4LTIuMDYzLTIxLjA2LTMuMjkyLTMzLjU2LTMuNDk2Yy0yMi43NjEtMC4zNzMtNDAuMDI2LDUuOTY3LTUzLjEyNywxNS45MDIgICAgYzAsMC0xNjEuNDExLTY2LjQ5NS0xNTMuOTA0LDgzLjYzYzEuNTk3LDMxLjkzOCw0NS43NzYsMjQxLjY1Nyw5OC40NzEsMTc4LjMxMmMxOS4yNi0yMy4xNjMsMzcuODY5LTQyLjc0OCwzNy44NjktNDIuNzQ4YzkuMjQzLDYuMTQsMjAuMzA4LDkuMjcyLDMxLjkwOCw4LjE0N2wwLjkwMS0wLjc2NWMtMC4yOCwyLjg3Ni0wLjE1Miw1LjY4OSwwLjM2MSw5LjAxOWMtMTMuNTc1LDE1LjE2Ny05LjU4NiwxNy44My0zNi43MjMsMjMuNDE2ICAgIGMtMjcuNDU5LDUuNjU5LTExLjMyOCwxNS43MzQtMC43OTYsMTguMzY3YzEyLjc2OCwzLjE5Myw0Mi4zMDcsNy43MTYsNjIuMjY2LTIwLjIyNGwtMC43OTYsMy4xODhjNS4zMTksNC4yNiw5LjA1NCwyNy43MTEsOC40MjgsNDguOTY5Yy0wLjYyNiwyMS4yNTktMS4wNDQsMzUuODU0LDMuMTQ3LDQ3LjI1NGM0LjE5MSwxMS40LDguMzY4LDM3LjA1LDQ0LjA0MiwyOS40MDZjMjkuODA5LTYuMzg4LDQ1LjI1Ni0yMi45NDIsNDcuNDA1LTUwLjU1NSAgICBjMS41MjUtMTkuNjMxLDQuOTc2LTE2LjcyOSw1LjE5NC0zNC4yOGwyLjc2OC04LjMwOWMzLjE5Mi0yNi42MTEsMC41MDctMzUuMTk2LDE4Ljg3Mi0zMS4yMDNsNC40NjMsMC4zOTJjMTMuNTE3LDAuNjE1LDMxLjIwOC0yLjE3NCw0MS41OTEtN2MyMi4zNTgtMTAuMzc2LDM1LjYxOC0yNy43LDEzLjU3My0yMy4xNDh6IiBzdHlsZT0iZmlsbDojMzM2NzkxO3N0cm9rZTpub25lOyIvPgo8cGF0aCBkPSJNMjE1Ljg2NiwyODYuNDg0Yy0xLjM4NSw0OS41MTYsMC4zNDgsOTkuMzc3LDUuMTkzLDExMS40OTVjNC44NDgsMTIuMTE4LDE1LjIyMywzNS42ODgsNTAuOSwyOC4wNDVjMjkuODA2LTYuMzksNDAuNjUxLTE4Ljc1Niw0NS4zNTctNDYuMDUxYzMuNDY2LTIwLjA4MiwxMC4xNDgtNzUuODU0LDExLjAwNS04Ny4yODEiLz4KPHBhdGggZD0iTTE3My4xMDQsMzguMjU2YzAsMC0xNjEuNTIxLTY2LjAxNi0xNTQuMDEyLDg0LjEwOWMxLjU5NywzMS45MzgsNDUuNzc5LDI0MS42NjQsOTguNDczLDE3OC4zMTZjMTkuMjU2LTIzLjE2NiwzNi42NzEtNDEuMzM1LDM2LjY3MS00MS4zMzUiLz4KPHBhdGggZD0iTTI2MC4zNDksMjYuMjA3Yy01LjU5MSwxLjc1Myw4OS44NDgtMzQuODg5LDE0NC4wODcsMzQuNDE3YzE5LjE1OSwyNC40ODQtMy4wNDMsMTI0LjUxOS01Ni4xNTMsMjAzLjMyOSIvPgo8cGF0aCBkPSJNMzQ4LjI4MiwyNjMuOTUzYzAsMCwzLjQ2MSwxNy4wMzYsNTMuNzY0LDYuNjUzYzIyLjA0LTQuNTUyLDguNzc2LDEyLjc3NC0xMy41NzcsMjMuMTU1Yy0xOC4zNDUsOC41MTQtNTkuNDc0LDEwLjY5Ni02MC4xNDYtMS4wNjljLTEuNzI5LTMwLjM1NSwyMS42NDctMjEuMTMzLDE5Ljk2LTI4LjczOWMtMS41MjUtNi44NS0xMS45NzktMTMuNTczLTE4Ljg5NC0zMC4zMzggICAgYy02LjAzNy0xNC42MzMtODIuNzk2LTEyNi44NDksMjEuMjg3LTExMC4xODNjMy44MTMtMC43ODktMjcuMTQ2LTk5LjAwMi0xMjQuNTUzLTEwMC41OTljLTk3LjM4NS0xLjU5Ny05NC4xOSwxMTkuNzYyLTk0LjE5LDExOS43NjIiIHN0eWxlPSJzdHJva2UtbGluZWpvaW46YmV2ZWw7Ii8+CjxwYXRoIGQ9Ik0xODguNjA0LDI3NC4zMzRjLTEzLjU3NywxNS4xNjYtOS41ODQsMTcuODI5LTM2LjcyMywyMy40MTdjLTI3LjQ1OSw1LjY2LTExLjMyNiwxNS43MzMtMC43OTcsMTguMzY1YzEyLjc2OCwzLjE5NSw0Mi4zMDcsNy43MTgsNjIuMjY2LTIwLjIyOWM2LjA3OC04LjUwOS0wLjAzNi0yMi4wODYtOC4zODUtMjUuNTQ3Yy00LjAzNC0xLjY3MS05LjQyOC0zLjc2NS0xNi4zNjEsMy45OTR6Ii8+CjxwYXRoIGQ9Ik0xODcuNzE1LDI3NC4wNjljLTEuMzY4LTguOTE3LDIuOTMtMTkuNTI4LDcuNTM2LTMxLjk0MmM2LjkyMi0xOC42MjYsMjIuODkzLTM3LjI1NSwxMC4xMTctOTYuMzM5Yy05LjUyMy00NC4wMjktNzMuMzk2LTkuMTYzLTczLjQzNi0zLjE5M2MtMC4wMzksNS45NjgsMi44ODksMzAuMjYtMS4wNjcsNTguNTQ4Yy01LjE2MiwzNi45MTMsMjMuNDg4LDY4LjEzMiw1Ni40NzksNjQuOTM4Ii8+CjxwYXRoIGQ9Ik0xNzIuNTE3LDE0MS43Yy0wLjI4OCwyLjAzOSwzLjczMyw3LjQ4LDguOTc2LDguMjA3YzUuMjM0LDAuNzMsOS43MTQtMy41MjIsOS45OTgtNS41NTljMC4yODQtMi4wMzktMy43MzItNC4yODUtOC45NzctNS4wMTVjLTUuMjM3LTAuNzMxLTkuNzE5LDAuMzMzLTkuOTk2LDIuMzY3eiIgc3R5bGU9ImZpbGw6I0ZGRkZGRjtzdHJva2Utd2lkdGg6NC4xNTU7c3Ryb2tlLWxpbmVjYXA6YnV0dDtzdHJva2UtbGluZWpvaW46bWl0ZXI7Ii8+CjxwYXRoIGQ9Ik0zMzEuOTQxLDEzNy41NDNjMC4yODQsMi4wMzktMy43MzIsNy40OC04Ljk3Niw4LjIwN2MtNS4yMzgsMC43My05LjcxOC0zLjUyMi0xMC4wMDUtNS41NTljLTAuMjc3LTIuMDM5LDMuNzQtNC4yODUsOC45NzktNS4wMTVjNS4yMzktMC43Myw5LjcxOCwwLjMzMywxMC4wMDIsMi4zNjh6IiBzdHlsZT0iZmlsbDojRkZGRkZGO3N0cm9rZS13aWR0aDoyLjA3NzU7c3Ryb2tlLWxpbmVjYXA6YnV0dDtzdHJva2UtbGluZWpvaW46bWl0ZXI7Ii8+CjxwYXRoIGQ9Ik0zNTAuNjc2LDEyMy40MzJjMC44NjMsMTUuOTk0LTMuNDQ1LDI2Ljg4OC0zLjk4OCw0My45MTRjLTAuODA0LDI0Ljc0OCwxMS43OTksNTMuMDc0LTcuMTkxLDgxLjQzNSIvPgo8cGF0aCBkPSJNMCw2MC4yMzIiIHN0eWxlPSJzdHJva2Utd2lkdGg6MzsiLz4KPC9nPgo8L3N2Zz4=;container=0;" vertex="1" parent="r40zEPP65t3HedOzYuGG-388">
          <mxGeometry x="21.29470198675497" y="15.274070073955148" width="31.89250047470031" height="32.84927548894132" as="geometry" />
        </mxCell>
        <mxCell id="r40zEPP65t3HedOzYuGG-390" value="&lt;p style=&quot;line-height: 70%;&quot;&gt;&lt;span style=&quot;font-size: 8px;&quot;&gt;patroni replica&lt;/span&gt;&lt;/p&gt;" style="text;html=1;strokeColor=none;fillColor=none;align=center;verticalAlign=middle;whiteSpace=wrap;rounded=0;fontColor=#000000;container=0;" vertex="1" parent="r40zEPP65t3HedOzYuGG-388">
          <mxGeometry width="79.86754966887418" height="11.186405946233691" as="geometry" />
        </mxCell>
        <mxCell id="r40zEPP65t3HedOzYuGG-391" value="" style="edgeStyle=orthogonalEdgeStyle;html=1;endArrow=block;startArrow=block;startFill=1;endFill=1;strokeColor=#C7B8B8;rounded=0;exitX=0.5;exitY=1;exitDx=0;exitDy=0;entryX=0.5;entryY=0;entryDx=0;entryDy=0;curved=1;fontColor=#000000;endSize=3;startSize=3;" edge="1" parent="1" source="r40zEPP65t3HedOzYuGG-394">
          <mxGeometry width="100" relative="1" as="geometry">
            <mxPoint x="1469.0414238410601" y="1147.3893229997216" as="sourcePoint" />
            <mxPoint x="803.9364900662254" y="830.6601475026588" as="targetPoint" />
          </mxGeometry>
        </mxCell>
        <mxCell id="r40zEPP65t3HedOzYuGG-392" value="" style="group" vertex="1" connectable="0" parent="1">
          <mxGeometry x="838.96" y="756" width="84.07390728476821" height="49.21062076490742" as="geometry" />
        </mxCell>
        <mxCell id="r40zEPP65t3HedOzYuGG-393" value="&lt;p style=&quot;line-height: 70%;&quot;&gt;&lt;span style=&quot;font-size: 8px;&quot;&gt;&lt;b&gt;new&lt;/b&gt; patroni primary&lt;/span&gt;&lt;/p&gt;" style="text;html=1;strokeColor=none;fillColor=none;align=center;verticalAlign=middle;whiteSpace=wrap;rounded=0;fontColor=#000000;container=0;" vertex="1" parent="r40zEPP65t3HedOzYuGG-392">
          <mxGeometry width="84.07390728476821" height="11.186405946233691" as="geometry" />
        </mxCell>
        <mxCell id="r40zEPP65t3HedOzYuGG-394" value="" style="shape=image;verticalLabelPosition=bottom;labelBackgroundColor=default;verticalAlign=top;aspect=fixed;imageAspect=0;image=data:image/svg+xml,PHN2ZyB4bWxucz0iaHR0cDovL3d3dy53My5vcmcvMjAwMC9zdmciIHhtbDpzcGFjZT0icHJlc2VydmUiIHZpZXdCb3g9IjAgMCA0MzIuMDcxIDQ0NS4zODMiIGhlaWdodD0iNDQ1LjM4M3B0IiB3aWR0aD0iNDMyLjA3MXB0Ij4KPGcgc3R5bGU9ImZpbGwtcnVsZTpub256ZXJvO2NsaXAtcnVsZTpub256ZXJvO3N0cm9rZTojMDAwMDAwO3N0cm9rZS1taXRlcmxpbWl0OjQ7IiBpZD0ib3JnaW5hbCI+Cgk8L2c+CjxnIHN0eWxlPSJmaWxsLXJ1bGU6bm9uemVybztjbGlwLXJ1bGU6bm9uemVybztmaWxsOm5vbmU7c3Ryb2tlOiNGRkZGRkY7c3Ryb2tlLXdpZHRoOjEyLjQ2NTE7c3Ryb2tlLWxpbmVjYXA6cm91bmQ7c3Ryb2tlLWxpbmVqb2luOnJvdW5kO3N0cm9rZS1taXRlcmxpbWl0OjQ7IiBpZD0iTGF5ZXJfeDAwMjBfMyI+CjxwYXRoIGQ9Ik0zMjMuMjA1LDMyNC4yMjdjMi44MzMtMjMuNjAxLDEuOTg0LTI3LjA2MiwxOS41NjMtMjMuMjM5bDQuNDYzLDAuMzkyYzEzLjUxNywwLjYxNSwzMS4xOTktMi4xNzQsNDEuNTg3LTdjMjIuMzYyLTEwLjM3NiwzNS42MjItMjcuNywxMy41NzItMjMuMTQ4Yy01MC4yOTcsMTAuMzc2LTUzLjc1NS02LjY1NS01My43NTUtNi42NTVjNTMuMTExLTc4LjgwMyw3NS4zMTMtMTc4LjgzNiw1Ni4xNDktMjAzLjMyMiAgICBDMzUyLjUxNC01LjUzNCwyNjIuMDM2LDI2LjA0OSwyNjAuNTIyLDI2Ljg2OWwtMC40ODIsMC4wODljLTkuOTM4LTIuMDYyLTIxLjA2LTMuMjk0LTMzLjU1NC0zLjQ5NmMtMjIuNzYxLTAuMzc0LTQwLjAzMiw1Ljk2Ny01My4xMzMsMTUuOTA0YzAsMC0xNjEuNDA4LTY2LjQ5OC0xNTMuODk5LDgzLjYyOGMxLjU5NywzMS45MzYsNDUuNzc3LDI0MS42NTUsOTguNDcsMTc4LjMxICAgIGMxOS4yNTktMjMuMTYzLDM3Ljg3MS00Mi43NDgsMzcuODcxLTQyLjc0OGM5LjI0Miw2LjE0LDIwLjMwNyw5LjI3MiwzMS45MTIsOC4xNDdsMC44OTctMC43NjVjLTAuMjgxLDIuODc2LTAuMTU3LDUuNjg5LDAuMzU5LDkuMDE5Yy0xMy41NzIsMTUuMTY3LTkuNTg0LDE3LjgzLTM2LjcyMywyMy40MTZjLTI3LjQ1Nyw1LjY1OS0xMS4zMjYsMTUuNzM0LTAuNzk3LDE4LjM2N2MxMi43NjgsMy4xOTMsNDIuMzA1LDcuNzE2LDYyLjI2OC0yMC4yMjQgICAgbC0wLjc5NSwzLjE4OGM1LjMyNSw0LjI2LDQuOTY1LDMwLjYxOSw1LjcyLDQ5LjQ1MmMwLjc1NiwxOC44MzQsMi4wMTcsMzYuNDA5LDUuODU2LDQ2Ljc3MWMzLjgzOSwxMC4zNiw4LjM2OSwzNy4wNSw0NC4wMzYsMjkuNDA2YzI5LjgwOS02LjM4OCw1Mi42LTE1LjU4Miw1NC42NzctMTAxLjEwNyIgc3R5bGU9ImZpbGw6IzAwMDAwMDtzdHJva2U6IzAwMDAwMDtzdHJva2Utd2lkdGg6MzcuMzk1MztzdHJva2UtbGluZWNhcDpidXR0O3N0cm9rZS1saW5lam9pbjptaXRlcjsiLz4KPHBhdGggZD0iTTQwMi4zOTUsMjcxLjIzYy01MC4zMDIsMTAuMzc2LTUzLjc2LTYuNjU1LTUzLjc2LTYuNjU1YzUzLjExMS03OC44MDgsNzUuMzEzLTE3OC44NDMsNTYuMTUzLTIwMy4zMjZjLTUyLjI3LTY2Ljc4NS0xNDIuNzUyLTM1LjItMTQ0LjI2Mi0zNC4zOGwtMC40ODYsMC4wODdjLTkuOTM4LTIuMDYzLTIxLjA2LTMuMjkyLTMzLjU2LTMuNDk2Yy0yMi43NjEtMC4zNzMtNDAuMDI2LDUuOTY3LTUzLjEyNywxNS45MDIgICAgYzAsMC0xNjEuNDExLTY2LjQ5NS0xNTMuOTA0LDgzLjYzYzEuNTk3LDMxLjkzOCw0NS43NzYsMjQxLjY1Nyw5OC40NzEsMTc4LjMxMmMxOS4yNi0yMy4xNjMsMzcuODY5LTQyLjc0OCwzNy44NjktNDIuNzQ4YzkuMjQzLDYuMTQsMjAuMzA4LDkuMjcyLDMxLjkwOCw4LjE0N2wwLjkwMS0wLjc2NWMtMC4yOCwyLjg3Ni0wLjE1Miw1LjY4OSwwLjM2MSw5LjAxOWMtMTMuNTc1LDE1LjE2Ny05LjU4NiwxNy44My0zNi43MjMsMjMuNDE2ICAgIGMtMjcuNDU5LDUuNjU5LTExLjMyOCwxNS43MzQtMC43OTYsMTguMzY3YzEyLjc2OCwzLjE5Myw0Mi4zMDcsNy43MTYsNjIuMjY2LTIwLjIyNGwtMC43OTYsMy4xODhjNS4zMTksNC4yNiw5LjA1NCwyNy43MTEsOC40MjgsNDguOTY5Yy0wLjYyNiwyMS4yNTktMS4wNDQsMzUuODU0LDMuMTQ3LDQ3LjI1NGM0LjE5MSwxMS40LDguMzY4LDM3LjA1LDQ0LjA0MiwyOS40MDZjMjkuODA5LTYuMzg4LDQ1LjI1Ni0yMi45NDIsNDcuNDA1LTUwLjU1NSAgICBjMS41MjUtMTkuNjMxLDQuOTc2LTE2LjcyOSw1LjE5NC0zNC4yOGwyLjc2OC04LjMwOWMzLjE5Mi0yNi42MTEsMC41MDctMzUuMTk2LDE4Ljg3Mi0zMS4yMDNsNC40NjMsMC4zOTJjMTMuNTE3LDAuNjE1LDMxLjIwOC0yLjE3NCw0MS41OTEtN2MyMi4zNTgtMTAuMzc2LDM1LjYxOC0yNy43LDEzLjU3My0yMy4xNDh6IiBzdHlsZT0iZmlsbDojMzM2NzkxO3N0cm9rZTpub25lOyIvPgo8cGF0aCBkPSJNMjE1Ljg2NiwyODYuNDg0Yy0xLjM4NSw0OS41MTYsMC4zNDgsOTkuMzc3LDUuMTkzLDExMS40OTVjNC44NDgsMTIuMTE4LDE1LjIyMywzNS42ODgsNTAuOSwyOC4wNDVjMjkuODA2LTYuMzksNDAuNjUxLTE4Ljc1Niw0NS4zNTctNDYuMDUxYzMuNDY2LTIwLjA4MiwxMC4xNDgtNzUuODU0LDExLjAwNS04Ny4yODEiLz4KPHBhdGggZD0iTTE3My4xMDQsMzguMjU2YzAsMC0xNjEuNTIxLTY2LjAxNi0xNTQuMDEyLDg0LjEwOWMxLjU5NywzMS45MzgsNDUuNzc5LDI0MS42NjQsOTguNDczLDE3OC4zMTZjMTkuMjU2LTIzLjE2NiwzNi42NzEtNDEuMzM1LDM2LjY3MS00MS4zMzUiLz4KPHBhdGggZD0iTTI2MC4zNDksMjYuMjA3Yy01LjU5MSwxLjc1Myw4OS44NDgtMzQuODg5LDE0NC4wODcsMzQuNDE3YzE5LjE1OSwyNC40ODQtMy4wNDMsMTI0LjUxOS01Ni4xNTMsMjAzLjMyOSIvPgo8cGF0aCBkPSJNMzQ4LjI4MiwyNjMuOTUzYzAsMCwzLjQ2MSwxNy4wMzYsNTMuNzY0LDYuNjUzYzIyLjA0LTQuNTUyLDguNzc2LDEyLjc3NC0xMy41NzcsMjMuMTU1Yy0xOC4zNDUsOC41MTQtNTkuNDc0LDEwLjY5Ni02MC4xNDYtMS4wNjljLTEuNzI5LTMwLjM1NSwyMS42NDctMjEuMTMzLDE5Ljk2LTI4LjczOWMtMS41MjUtNi44NS0xMS45NzktMTMuNTczLTE4Ljg5NC0zMC4zMzggICAgYy02LjAzNy0xNC42MzMtODIuNzk2LTEyNi44NDksMjEuMjg3LTExMC4xODNjMy44MTMtMC43ODktMjcuMTQ2LTk5LjAwMi0xMjQuNTUzLTEwMC41OTljLTk3LjM4NS0xLjU5Ny05NC4xOSwxMTkuNzYyLTk0LjE5LDExOS43NjIiIHN0eWxlPSJzdHJva2UtbGluZWpvaW46YmV2ZWw7Ii8+CjxwYXRoIGQ9Ik0xODguNjA0LDI3NC4zMzRjLTEzLjU3NywxNS4xNjYtOS41ODQsMTcuODI5LTM2LjcyMywyMy40MTdjLTI3LjQ1OSw1LjY2LTExLjMyNiwxNS43MzMtMC43OTcsMTguMzY1YzEyLjc2OCwzLjE5NSw0Mi4zMDcsNy43MTgsNjIuMjY2LTIwLjIyOWM2LjA3OC04LjUwOS0wLjAzNi0yMi4wODYtOC4zODUtMjUuNTQ3Yy00LjAzNC0xLjY3MS05LjQyOC0zLjc2NS0xNi4zNjEsMy45OTR6Ii8+CjxwYXRoIGQ9Ik0xODcuNzE1LDI3NC4wNjljLTEuMzY4LTguOTE3LDIuOTMtMTkuNTI4LDcuNTM2LTMxLjk0MmM2LjkyMi0xOC42MjYsMjIuODkzLTM3LjI1NSwxMC4xMTctOTYuMzM5Yy05LjUyMy00NC4wMjktNzMuMzk2LTkuMTYzLTczLjQzNi0zLjE5M2MtMC4wMzksNS45NjgsMi44ODksMzAuMjYtMS4wNjcsNTguNTQ4Yy01LjE2MiwzNi45MTMsMjMuNDg4LDY4LjEzMiw1Ni40NzksNjQuOTM4Ii8+CjxwYXRoIGQ9Ik0xNzIuNTE3LDE0MS43Yy0wLjI4OCwyLjAzOSwzLjczMyw3LjQ4LDguOTc2LDguMjA3YzUuMjM0LDAuNzMsOS43MTQtMy41MjIsOS45OTgtNS41NTljMC4yODQtMi4wMzktMy43MzItNC4yODUtOC45NzctNS4wMTVjLTUuMjM3LTAuNzMxLTkuNzE5LDAuMzMzLTkuOTk2LDIuMzY3eiIgc3R5bGU9ImZpbGw6I0ZGRkZGRjtzdHJva2Utd2lkdGg6NC4xNTU7c3Ryb2tlLWxpbmVjYXA6YnV0dDtzdHJva2UtbGluZWpvaW46bWl0ZXI7Ii8+CjxwYXRoIGQ9Ik0zMzEuOTQxLDEzNy41NDNjMC4yODQsMi4wMzktMy43MzIsNy40OC04Ljk3Niw4LjIwN2MtNS4yMzgsMC43My05LjcxOC0zLjUyMi0xMC4wMDUtNS41NTljLTAuMjc3LTIuMDM5LDMuNzQtNC4yODUsOC45NzktNS4wMTVjNS4yMzktMC43Myw5LjcxOCwwLjMzMywxMC4wMDIsMi4zNjh6IiBzdHlsZT0iZmlsbDojRkZGRkZGO3N0cm9rZS13aWR0aDoyLjA3NzU7c3Ryb2tlLWxpbmVjYXA6YnV0dDtzdHJva2UtbGluZWpvaW46bWl0ZXI7Ii8+CjxwYXRoIGQ9Ik0zNTAuNjc2LDEyMy40MzJjMC44NjMsMTUuOTk0LTMuNDQ1LDI2Ljg4OC0zLjk4OCw0My45MTRjLTAuODA0LDI0Ljc0OCwxMS43OTksNTMuMDc0LTcuMTkxLDgxLjQzNSIvPgo8cGF0aCBkPSJNMCw2MC4yMzIiIHN0eWxlPSJzdHJva2Utd2lkdGg6MzsiLz4KPC9nPgo8L3N2Zz4=;container=0;" vertex="1" parent="r40zEPP65t3HedOzYuGG-392">
          <mxGeometry x="22.517615894039636" y="16.3613452759661" width="31.89250047470031" height="32.85" as="geometry" />
        </mxCell>
        <mxCell id="r40zEPP65t3HedOzYuGG-396" value="" style="group" vertex="1" connectable="0" parent="1">
          <mxGeometry x="907.0024503311258" y="831.3098483825493" width="79.86754966887418" height="57.86652098502837" as="geometry" />
        </mxCell>
        <mxCell id="r40zEPP65t3HedOzYuGG-397" value="&lt;p style=&quot;line-height: 70%;&quot;&gt;&lt;span style=&quot;font-size: 8px;&quot;&gt;&lt;b&gt;old&amp;nbsp;&lt;/b&gt;patroni primary&lt;/span&gt;&lt;/p&gt;" style="text;html=1;strokeColor=none;fillColor=none;align=center;verticalAlign=middle;whiteSpace=wrap;rounded=0;fontColor=#000000;container=0;" vertex="1" parent="r40zEPP65t3HedOzYuGG-396">
          <mxGeometry width="79.86754966887418" height="11.186405946233691" as="geometry" />
        </mxCell>
        <mxCell id="r40zEPP65t3HedOzYuGG-398" value="" style="shape=image;verticalLabelPosition=bottom;labelBackgroundColor=default;verticalAlign=top;aspect=fixed;imageAspect=0;image=data:image/svg+xml,PHN2ZyB4bWxucz0iaHR0cDovL3d3dy53My5vcmcvMjAwMC9zdmciIHhtbDpzcGFjZT0icHJlc2VydmUiIHZpZXdCb3g9IjAgMCA0MzIuMDcxIDQ0NS4zODMiIGhlaWdodD0iNDQ1LjM4M3B0IiB3aWR0aD0iNDMyLjA3MXB0Ij4KPGcgc3R5bGU9ImZpbGwtcnVsZTpub256ZXJvO2NsaXAtcnVsZTpub256ZXJvO3N0cm9rZTojMDAwMDAwO3N0cm9rZS1taXRlcmxpbWl0OjQ7IiBpZD0ib3JnaW5hbCI+Cgk8L2c+CjxnIHN0eWxlPSJmaWxsLXJ1bGU6bm9uemVybztjbGlwLXJ1bGU6bm9uemVybztmaWxsOm5vbmU7c3Ryb2tlOiNGRkZGRkY7c3Ryb2tlLXdpZHRoOjEyLjQ2NTE7c3Ryb2tlLWxpbmVjYXA6cm91bmQ7c3Ryb2tlLWxpbmVqb2luOnJvdW5kO3N0cm9rZS1taXRlcmxpbWl0OjQ7IiBpZD0iTGF5ZXJfeDAwMjBfMyI+CjxwYXRoIGQ9Ik0zMjMuMjA1LDMyNC4yMjdjMi44MzMtMjMuNjAxLDEuOTg0LTI3LjA2MiwxOS41NjMtMjMuMjM5bDQuNDYzLDAuMzkyYzEzLjUxNywwLjYxNSwzMS4xOTktMi4xNzQsNDEuNTg3LTdjMjIuMzYyLTEwLjM3NiwzNS42MjItMjcuNywxMy41NzItMjMuMTQ4Yy01MC4yOTcsMTAuMzc2LTUzLjc1NS02LjY1NS01My43NTUtNi42NTVjNTMuMTExLTc4LjgwMyw3NS4zMTMtMTc4LjgzNiw1Ni4xNDktMjAzLjMyMiAgICBDMzUyLjUxNC01LjUzNCwyNjIuMDM2LDI2LjA0OSwyNjAuNTIyLDI2Ljg2OWwtMC40ODIsMC4wODljLTkuOTM4LTIuMDYyLTIxLjA2LTMuMjk0LTMzLjU1NC0zLjQ5NmMtMjIuNzYxLTAuMzc0LTQwLjAzMiw1Ljk2Ny01My4xMzMsMTUuOTA0YzAsMC0xNjEuNDA4LTY2LjQ5OC0xNTMuODk5LDgzLjYyOGMxLjU5NywzMS45MzYsNDUuNzc3LDI0MS42NTUsOTguNDcsMTc4LjMxICAgIGMxOS4yNTktMjMuMTYzLDM3Ljg3MS00Mi43NDgsMzcuODcxLTQyLjc0OGM5LjI0Miw2LjE0LDIwLjMwNyw5LjI3MiwzMS45MTIsOC4xNDdsMC44OTctMC43NjVjLTAuMjgxLDIuODc2LTAuMTU3LDUuNjg5LDAuMzU5LDkuMDE5Yy0xMy41NzIsMTUuMTY3LTkuNTg0LDE3LjgzLTM2LjcyMywyMy40MTZjLTI3LjQ1Nyw1LjY1OS0xMS4zMjYsMTUuNzM0LTAuNzk3LDE4LjM2N2MxMi43NjgsMy4xOTMsNDIuMzA1LDcuNzE2LDYyLjI2OC0yMC4yMjQgICAgbC0wLjc5NSwzLjE4OGM1LjMyNSw0LjI2LDQuOTY1LDMwLjYxOSw1LjcyLDQ5LjQ1MmMwLjc1NiwxOC44MzQsMi4wMTcsMzYuNDA5LDUuODU2LDQ2Ljc3MWMzLjgzOSwxMC4zNiw4LjM2OSwzNy4wNSw0NC4wMzYsMjkuNDA2YzI5LjgwOS02LjM4OCw1Mi42LTE1LjU4Miw1NC42NzctMTAxLjEwNyIgc3R5bGU9ImZpbGw6IzAwMDAwMDtzdHJva2U6IzAwMDAwMDtzdHJva2Utd2lkdGg6MzcuMzk1MztzdHJva2UtbGluZWNhcDpidXR0O3N0cm9rZS1saW5lam9pbjptaXRlcjsiLz4KPHBhdGggZD0iTTQwMi4zOTUsMjcxLjIzYy01MC4zMDIsMTAuMzc2LTUzLjc2LTYuNjU1LTUzLjc2LTYuNjU1YzUzLjExMS03OC44MDgsNzUuMzEzLTE3OC44NDMsNTYuMTUzLTIwMy4zMjZjLTUyLjI3LTY2Ljc4NS0xNDIuNzUyLTM1LjItMTQ0LjI2Mi0zNC4zOGwtMC40ODYsMC4wODdjLTkuOTM4LTIuMDYzLTIxLjA2LTMuMjkyLTMzLjU2LTMuNDk2Yy0yMi43NjEtMC4zNzMtNDAuMDI2LDUuOTY3LTUzLjEyNywxNS45MDIgICAgYzAsMC0xNjEuNDExLTY2LjQ5NS0xNTMuOTA0LDgzLjYzYzEuNTk3LDMxLjkzOCw0NS43NzYsMjQxLjY1Nyw5OC40NzEsMTc4LjMxMmMxOS4yNi0yMy4xNjMsMzcuODY5LTQyLjc0OCwzNy44NjktNDIuNzQ4YzkuMjQzLDYuMTQsMjAuMzA4LDkuMjcyLDMxLjkwOCw4LjE0N2wwLjkwMS0wLjc2NWMtMC4yOCwyLjg3Ni0wLjE1Miw1LjY4OSwwLjM2MSw5LjAxOWMtMTMuNTc1LDE1LjE2Ny05LjU4NiwxNy44My0zNi43MjMsMjMuNDE2ICAgIGMtMjcuNDU5LDUuNjU5LTExLjMyOCwxNS43MzQtMC43OTYsMTguMzY3YzEyLjc2OCwzLjE5Myw0Mi4zMDcsNy43MTYsNjIuMjY2LTIwLjIyNGwtMC43OTYsMy4xODhjNS4zMTksNC4yNiw5LjA1NCwyNy43MTEsOC40MjgsNDguOTY5Yy0wLjYyNiwyMS4yNTktMS4wNDQsMzUuODU0LDMuMTQ3LDQ3LjI1NGM0LjE5MSwxMS40LDguMzY4LDM3LjA1LDQ0LjA0MiwyOS40MDZjMjkuODA5LTYuMzg4LDQ1LjI1Ni0yMi45NDIsNDcuNDA1LTUwLjU1NSAgICBjMS41MjUtMTkuNjMxLDQuOTc2LTE2LjcyOSw1LjE5NC0zNC4yOGwyLjc2OC04LjMwOWMzLjE5Mi0yNi42MTEsMC41MDctMzUuMTk2LDE4Ljg3Mi0zMS4yMDNsNC40NjMsMC4zOTJjMTMuNTE3LDAuNjE1LDMxLjIwOC0yLjE3NCw0MS41OTEtN2MyMi4zNTgtMTAuMzc2LDM1LjYxOC0yNy43LDEzLjU3My0yMy4xNDh6IiBzdHlsZT0iZmlsbDojMzM2NzkxO3N0cm9rZTpub25lOyIvPgo8cGF0aCBkPSJNMjE1Ljg2NiwyODYuNDg0Yy0xLjM4NSw0OS41MTYsMC4zNDgsOTkuMzc3LDUuMTkzLDExMS40OTVjNC44NDgsMTIuMTE4LDE1LjIyMywzNS42ODgsNTAuOSwyOC4wNDVjMjkuODA2LTYuMzksNDAuNjUxLTE4Ljc1Niw0NS4zNTctNDYuMDUxYzMuNDY2LTIwLjA4MiwxMC4xNDgtNzUuODU0LDExLjAwNS04Ny4yODEiLz4KPHBhdGggZD0iTTE3My4xMDQsMzguMjU2YzAsMC0xNjEuNTIxLTY2LjAxNi0xNTQuMDEyLDg0LjEwOWMxLjU5NywzMS45MzgsNDUuNzc5LDI0MS42NjQsOTguNDczLDE3OC4zMTZjMTkuMjU2LTIzLjE2NiwzNi42NzEtNDEuMzM1LDM2LjY3MS00MS4zMzUiLz4KPHBhdGggZD0iTTI2MC4zNDksMjYuMjA3Yy01LjU5MSwxLjc1Myw4OS44NDgtMzQuODg5LDE0NC4wODcsMzQuNDE3YzE5LjE1OSwyNC40ODQtMy4wNDMsMTI0LjUxOS01Ni4xNTMsMjAzLjMyOSIvPgo8cGF0aCBkPSJNMzQ4LjI4MiwyNjMuOTUzYzAsMCwzLjQ2MSwxNy4wMzYsNTMuNzY0LDYuNjUzYzIyLjA0LTQuNTUyLDguNzc2LDEyLjc3NC0xMy41NzcsMjMuMTU1Yy0xOC4zNDUsOC41MTQtNTkuNDc0LDEwLjY5Ni02MC4xNDYtMS4wNjljLTEuNzI5LTMwLjM1NSwyMS42NDctMjEuMTMzLDE5Ljk2LTI4LjczOWMtMS41MjUtNi44NS0xMS45NzktMTMuNTczLTE4Ljg5NC0zMC4zMzggICAgYy02LjAzNy0xNC42MzMtODIuNzk2LTEyNi44NDksMjEuMjg3LTExMC4xODNjMy44MTMtMC43ODktMjcuMTQ2LTk5LjAwMi0xMjQuNTUzLTEwMC41OTljLTk3LjM4NS0xLjU5Ny05NC4xOSwxMTkuNzYyLTk0LjE5LDExOS43NjIiIHN0eWxlPSJzdHJva2UtbGluZWpvaW46YmV2ZWw7Ii8+CjxwYXRoIGQ9Ik0xODguNjA0LDI3NC4zMzRjLTEzLjU3NywxNS4xNjYtOS41ODQsMTcuODI5LTM2LjcyMywyMy40MTdjLTI3LjQ1OSw1LjY2LTExLjMyNiwxNS43MzMtMC43OTcsMTguMzY1YzEyLjc2OCwzLjE5NSw0Mi4zMDcsNy43MTgsNjIuMjY2LTIwLjIyOWM2LjA3OC04LjUwOS0wLjAzNi0yMi4wODYtOC4zODUtMjUuNTQ3Yy00LjAzNC0xLjY3MS05LjQyOC0zLjc2NS0xNi4zNjEsMy45OTR6Ii8+CjxwYXRoIGQ9Ik0xODcuNzE1LDI3NC4wNjljLTEuMzY4LTguOTE3LDIuOTMtMTkuNTI4LDcuNTM2LTMxLjk0MmM2LjkyMi0xOC42MjYsMjIuODkzLTM3LjI1NSwxMC4xMTctOTYuMzM5Yy05LjUyMy00NC4wMjktNzMuMzk2LTkuMTYzLTczLjQzNi0zLjE5M2MtMC4wMzksNS45NjgsMi44ODksMzAuMjYtMS4wNjcsNTguNTQ4Yy01LjE2MiwzNi45MTMsMjMuNDg4LDY4LjEzMiw1Ni40NzksNjQuOTM4Ii8+CjxwYXRoIGQ9Ik0xNzIuNTE3LDE0MS43Yy0wLjI4OCwyLjAzOSwzLjczMyw3LjQ4LDguOTc2LDguMjA3YzUuMjM0LDAuNzMsOS43MTQtMy41MjIsOS45OTgtNS41NTljMC4yODQtMi4wMzktMy43MzItNC4yODUtOC45NzctNS4wMTVjLTUuMjM3LTAuNzMxLTkuNzE5LDAuMzMzLTkuOTk2LDIuMzY3eiIgc3R5bGU9ImZpbGw6I0ZGRkZGRjtzdHJva2Utd2lkdGg6NC4xNTU7c3Ryb2tlLWxpbmVjYXA6YnV0dDtzdHJva2UtbGluZWpvaW46bWl0ZXI7Ii8+CjxwYXRoIGQ9Ik0zMzEuOTQxLDEzNy41NDNjMC4yODQsMi4wMzktMy43MzIsNy40OC04Ljk3Niw4LjIwN2MtNS4yMzgsMC43My05LjcxOC0zLjUyMi0xMC4wMDUtNS41NTljLTAuMjc3LTIuMDM5LDMuNzQtNC4yODUsOC45NzktNS4wMTVjNS4yMzktMC43Myw5LjcxOCwwLjMzMywxMC4wMDIsMi4zNjh6IiBzdHlsZT0iZmlsbDojRkZGRkZGO3N0cm9rZS13aWR0aDoyLjA3NzU7c3Ryb2tlLWxpbmVjYXA6YnV0dDtzdHJva2UtbGluZWpvaW46bWl0ZXI7Ii8+CjxwYXRoIGQ9Ik0zNTAuNjc2LDEyMy40MzJjMC44NjMsMTUuOTk0LTMuNDQ1LDI2Ljg4OC0zLjk4OCw0My45MTRjLTAuODA0LDI0Ljc0OCwxMS43OTksNTMuMDc0LTcuMTkxLDgxLjQzNSIvPgo8cGF0aCBkPSJNMCw2MC4yMzIiIHN0eWxlPSJzdHJva2Utd2lkdGg6MzsiLz4KPC9nPgo8L3N2Zz4=;container=0;" vertex="1" parent="r40zEPP65t3HedOzYuGG-396">
          <mxGeometry x="23.29470198675497" y="14.55073856164228" width="31.89250047470031" height="32.84927548894132" as="geometry" />
        </mxCell>
        <mxCell id="r40zEPP65t3HedOzYuGG-395" value="" style="shape=mxgraph.mockup.markup.redX;fillColor=#ff0000;html=1;shadow=0;strokeColor=none;aspect=fixed;" vertex="1" parent="r40zEPP65t3HedOzYuGG-396">
          <mxGeometry x="19.93754966887417" y="8.930151617450747" width="40" height="40" as="geometry" />
        </mxCell>
        <mxCell id="r40zEPP65t3HedOzYuGG-399" value="" style="edgeStyle=orthogonalEdgeStyle;html=1;endArrow=block;startArrow=block;startFill=1;endFill=1;strokeColor=#C7B8B8;rounded=0;curved=1;entryX=0.5;entryY=0;entryDx=0;entryDy=0;exitX=0.5;exitY=1;exitDx=0;exitDy=0;fontColor=#000000;endSize=3;startSize=3;" edge="1" parent="1" source="r40zEPP65t3HedOzYuGG-394" target="r40zEPP65t3HedOzYuGG-397">
          <mxGeometry width="100" relative="1" as="geometry">
            <mxPoint x="888" y="815.31" as="sourcePoint" />
            <mxPoint x="888" y="841.31" as="targetPoint" />
          </mxGeometry>
        </mxCell>
        <mxCell id="r40zEPP65t3HedOzYuGG-400" value="" style="edgeStyle=orthogonalEdgeStyle;html=1;endArrow=block;startArrow=block;startFill=1;endFill=1;strokeColor=#C7B8B8;rounded=0;exitX=0;exitY=0.5;exitDx=0;exitDy=0;entryX=1;entryY=0.5;entryDx=0;entryDy=0;curved=1;fontColor=#000000;endSize=3;startSize=3;" edge="1" parent="1" source="r40zEPP65t3HedOzYuGG-398" target="r40zEPP65t3HedOzYuGG-389">
          <mxGeometry width="100" relative="1" as="geometry">
            <mxPoint x="887" y="815.31" as="sourcePoint" />
            <mxPoint x="814" y="840.31" as="targetPoint" />
          </mxGeometry>
        </mxCell>
        <mxCell id="r40zEPP65t3HedOzYuGG-402" value="&lt;p style=&quot;line-height: 70%;&quot;&gt;&lt;span style=&quot;font-size: 8px;&quot;&gt;After re-election&lt;/span&gt;&lt;/p&gt;" style="text;html=1;strokeColor=none;fillColor=none;align=center;verticalAlign=middle;whiteSpace=wrap;rounded=0;fontColor=#000000;container=0;" vertex="1" parent="1">
          <mxGeometry x="683" y="805.21" width="63.87" height="11.19" as="geometry" />
        </mxCell>
        <mxCell id="r40zEPP65t3HedOzYuGG-403" value="" style="shape=image;verticalLabelPosition=bottom;labelBackgroundColor=default;verticalAlign=top;aspect=fixed;imageAspect=0;image=data:image/svg+xml,PHN2ZyB4bWxucz0iaHR0cDovL3d3dy53My5vcmcvMjAwMC9zdmciIHByZXNlcnZlQXNwZWN0UmF0aW89InhNaWRZTWlkIiB2aWV3Qm94PSIwIDAgMjU1Ljk5OTk4NDc0MTIxMDk0IDI0Ny4zMTUwMDI0NDE0MDYyNSIgaGVpZ2h0PSIyNDE1LjMxMDIyNTQ1NTk5MTciIHdpZHRoPSIyNDk5Ljk5OTg1MDk4ODM4OCI+PHBhdGggZmlsbD0iIzQxOUVEQSIgZD0iTTI1Mi4zODYgMTI4LjA2NGMtMS4yMDIuMS0yLjQxLjE0Ny0zLjY5My4xNDctNy40NDYgMC0xNC42Ny0xLjc0Ni0yMS4xODctNC45NDQgMi4xNy0xMi40NDcgMy4wOTItMjQuOTg3IDIuODUtMzcuNDgxLTcuMDY1LTEwLjIyLTE1LjE0LTE5Ljg2My0yNC4yNTYtMjguNzQ3IDMuOTU1LTcuNDE1IDkuODAxLTEzLjc5NSAxNy4xLTE4LjMxOWwzLjEzMy0xLjkzNy0yLjQ0Mi0yLjc1NGMtMTIuNTgxLTE0LjE2Ny0yNy41OTYtMjUuMTItNDQuNjItMzIuNTUyTDE3NS44NzYgMGwtLjg2MiAzLjU4OGMtMi4wMyA4LjM2My02LjI3NCAxNS45MDgtMTIuMSAyMS45NjJhMTkzLjg0MiAxOTMuODQyIDAgMCAwLTM0Ljk1Ni0xNC40MDVBMTk0LjAxMiAxOTQuMDEyIDAgMCAwIDkzLjA1NiAyNS41MkM4Ny4yNTQgMTkuNDczIDgzLjAyIDExLjk0NyA4MC45OTkgMy42MDhMODAuMTMuMDJsLTMuMzgyIDEuNDdDNTkuOTM5IDguODE1IDQ0LjUxIDIwLjA2NSAzMi4xMzUgMzQuMDJsLTIuNDQ5IDIuNzYgMy4xMyAxLjkzN2M3LjI3NiA0LjUwNiAxMy4xMDYgMTAuODQ5IDE3LjA1NCAxOC4yMjMtOS4wODggOC44NS0xNy4xNTQgMTguNDYyLTI0LjIxNCAyOC42MzUtLjI3NSAxMi40ODkuNiAyNS4xMiAyLjc4IDM3Ljc0LTYuNDg0IDMuMTY3LTEzLjY2OCA0Ljg5NC0yMS4wNjUgNC44OTQtMS4yOTggMC0yLjUxMy0uMDQ3LTMuNjkzLS4xNDVMMCAxMjcuNzg1bC4zNDUgMy42NzFjMS44MDIgMTguNTc4IDcuNTcgMzYuMjQ3IDE3LjE1NCA1Mi41MjNsMS44NyAzLjE3NiAyLjgxLTIuMzg0YTQ4LjA0IDQ4LjA0IDAgMCAxIDIyLjczNy0xMC42NSAxOTQuODYgMTk0Ljg2IDAgMCAwIDE5LjQ2IDMxLjY5NmMxMS44MjggNC4xMzcgMjQuMTUxIDcuMjI1IDM2Ljg3OCA5LjA2MyAxLjIyIDguNDE3LjI0OCAxNy4xMjItMy4wNzIgMjUuMTcxbC0xLjQgMy40MTEgMy42Ljc5M2M5LjIyIDIuMDI3IDE4LjUyMyAzLjA2IDI3LjYzMSAzLjA2bDI3LjYyMy0zLjA2IDMuNjA0LS43OTMtMS40MDMtMy40MTdjLTMuMzEyLTguMDUtNC4yODQtMTYuNzY1LTMuMDYzLTI1LjE4MyAxMi42NzYtMS44NCAyNC45NTQtNC45MiAzNi43MzgtOS4wNDVhMTk1LjEwOCAxOTUuMTA4IDAgMCAwIDE5LjQ4Mi0zMS43MjYgNDguMjU0IDQ4LjI1NCAwIDAgMSAyMi44NDggMTAuNjZsMi44MDkgMi4zOCAxLjg2Mi0zLjE2OGM5LjYtMTYuMjk3IDE1LjM2OC0zMy45NjUgMTcuMTQyLTUyLjUxM2wuMzQ1LTMuNjY1LTMuNjE0LjI3OXpNMTY3LjQ5IDE3Mi45NmMtMTMuMDY4IDMuNTU0LTI2LjM0IDUuMzQ4LTM5LjUzMiA1LjM0OC0xMy4yMjggMC0yNi40ODMtMS43OTMtMzkuNTYzLTUuMzQ4YTE1My4yNTUgMTUzLjI1NSAwIDAgMS0xNi45MzItMzUuNjdjLTQuMDY2LTEyLjUxNy02LjQ0NS0yNS42My03LjEzNS0zOS4xMzQgOC40NDYtMTAuNDQzIDE4LjA1Mi0xOS41OTEgMjguNjY1LTI3LjI5M2ExNTIuNjIgMTUyLjYyIDAgMCAxIDM0Ljk2NS0xOS4wMTEgMTUzLjI0MiAxNTMuMjQyIDAgMCAxIDM0Ljg5OCAxOC45N2MxMC42NTQgNy43NDMgMjAuMzAyIDE2Ljk2MiAyOC43OSAyNy40Ny0uNzI0IDEzLjQyNy0zLjEzMiAyNi40NjUtNy4yMDQgMzguOTYxYTE1Mi43NjcgMTUyLjc2NyAwIDAgMS0xNi45NTIgMzUuNzA3em0tMjguNzQtNjIuOTk4YzAgOS4yMzIgNy40ODIgMTYuNyAxNi43MDIgMTYuNyA5LjIxNyAwIDE2LjY5LTcuNDY2IDE2LjY5LTE2LjcgMC05LjE5Ni03LjQ3My0xNi42OTItMTYuNjktMTYuNjkyLTkuMjIgMC0xNi43MDEgNy40OTYtMTYuNzAxIDE2LjY5MnptLTIxLjU3OCAwYzAgOS4yMzItNy40OCAxNi43LTE2LjcgMTYuNy05LjIyNiAwLTE2LjY4NS03LjQ2Ni0xNi42ODUtMTYuNyAwLTkuMTkzIDcuNDYtMTYuNjg5IDE2LjY4Ni0xNi42ODkgOS4yMiAwIDE2LjcgNy40OTYgMTYuNyAxNi42OXoiLz48L3N2Zz4=;" vertex="1" parent="1">
          <mxGeometry x="702.4300000000001" y="780" width="25" height="24.16" as="geometry" />
        </mxCell>
        <mxCell id="r40zEPP65t3HedOzYuGG-404" value="&lt;font style=&quot;font-size: 9px;&quot;&gt;&amp;nbsp;Patroni Cluster&lt;/font&gt;" style="text;html=1;strokeColor=#666666;fillColor=#f5f5f5;align=left;verticalAlign=middle;whiteSpace=wrap;rounded=0;fontColor=#333333;horizontal=1;fontSize=9;" vertex="1" parent="1">
          <mxGeometry x="444" y="740" width="76" height="20" as="geometry" />
        </mxCell>
        <mxCell id="r40zEPP65t3HedOzYuGG-406" value="&lt;font style=&quot;font-size: 9px;&quot;&gt;&amp;nbsp;Patroni Cluster&lt;/font&gt;" style="text;html=1;strokeColor=#666666;fillColor=#f5f5f5;align=left;verticalAlign=middle;whiteSpace=wrap;rounded=0;fontColor=#333333;horizontal=1;fontSize=9;" vertex="1" parent="1">
          <mxGeometry x="762.96" y="740" width="76" height="20" as="geometry" />
        </mxCell>
      </root>
    </mxGraphModel>
  </diagram>
</mxfile>
